<svg width="980" height="720" viewBox="0 0 980 720" fill="none" xmlns="http://www.w3.org/2000/svg">
<g clip-path="url(#clip0)">
<line x1="32.77" y1="366.02" x2="-0.117809" y2="358.127" stroke="black"/>
<rect x="157.707" y="365.563" width="469.315" height="470.446" rx="39.5" transform="rotate(-45 157.707 365.563)" stroke="#FF55FF"/>
<path d="M446.702 218.954L375.153 147.405L402.733 119.825L475.481 192.573C497.358 187.907 508.986 188.41 526.645 203.765C544.188 223.906 537.837 254.929 537.837 254.929L605.789 322.88C626.463 318.539 637.877 320.624 657.352 334.472C670.49 351.891 673.63 362.829 668.144 385.236C661.268 399.871 655.451 406.191 640.564 412.816C617.837 420.185 606.987 416.401 589.4 402.424C573.869 385.728 572.513 373.998 578.208 350.461L513.854 286.106L513.055 457.984C529.605 466.765 536.011 474.942 539.036 499.155C538.718 521.246 532.71 530.282 513.854 541.924C497.861 550.57 487.995 550.676 469.885 542.724C451.896 531.381 446.078 521.806 443.105 499.155C446.503 476.344 450.204 469.184 473.083 455.586L473.083 281.31C473.083 281.31 455.342 273.557 447.901 256.128C440.461 238.698 444.944 232.439 446.702 218.954Z" stroke="#55FFFF"/>
</g>
<defs>
<clipPath id="clip0">
<rect width="980" height="720" fill="blue"/>
</clipPath>
</defs>
</svg>
