<svg width="980" height="361" viewBox="0 0 980 361" fill="none" xmlns="http://www.w3.org/2000/svg">
<rect x="82.5" y="87.5" width="71" height="219" stroke="#55FFFF"/>
<rect x="824.5" y="87.5" width="72" height="219" stroke="#FF55FF"/>
<path d="M828.059 66.924C828.477 66.3667 828.965 65.9377 829.522 65.637C830.087 65.329 830.699 65.175 831.359 65.175C832.393 65.175 833.229 65.4243 833.867 65.923C834.505 66.4217 834.971 67.1257 835.264 68.035C835.557 68.937 835.704 69.993 835.704 71.203C835.704 72.369 835.528 73.4103 835.176 74.327C834.831 75.2363 834.318 75.9513 833.636 76.472C832.954 76.9927 832.114 77.253 831.117 77.253C829.775 77.253 828.723 76.769 827.96 75.801L827.828 77H826.211V60.753L828.059 60.522V66.924ZM830.677 75.757C831.645 75.757 832.389 75.383 832.91 74.635C833.431 73.887 833.691 72.7393 833.691 71.192C833.691 68.1707 832.782 66.66 830.963 66.66C830.318 66.66 829.749 66.8543 829.258 67.243C828.767 67.6243 828.367 68.0497 828.059 68.519V74.261C828.36 74.723 828.737 75.0897 829.192 75.361C829.654 75.625 830.149 75.757 830.677 75.757ZM843.813 65.175C845.449 65.175 846.684 65.7213 847.52 66.814C848.356 67.9067 848.774 69.3697 848.774 71.203C848.774 72.3837 848.584 73.4287 848.202 74.338C847.821 75.2473 847.26 75.9623 846.519 76.483C845.779 76.9963 844.869 77.253 843.791 77.253C842.156 77.253 840.917 76.703 840.073 75.603C839.23 74.503 838.808 73.0437 838.808 71.225C838.808 70.037 838.999 68.9883 839.38 68.079C839.762 67.1623 840.323 66.451 841.063 65.945C841.811 65.4317 842.728 65.175 843.813 65.175ZM843.813 66.682C842.816 66.682 842.061 67.0523 841.547 67.793C841.041 68.5337 840.788 69.6777 840.788 71.225C840.788 72.7577 841.038 73.8943 841.536 74.635C842.042 75.3683 842.794 75.735 843.791 75.735C844.789 75.735 845.537 75.3647 846.035 74.624C846.541 73.8833 846.794 72.743 846.794 71.203C846.794 69.663 846.545 68.5263 846.046 67.793C845.548 67.0523 844.803 66.682 843.813 66.682ZM854.442 66.924C854.86 66.3667 855.347 65.9377 855.905 65.637C856.469 65.329 857.082 65.175 857.742 65.175C858.776 65.175 859.612 65.4243 860.25 65.923C860.888 66.4217 861.353 67.1257 861.647 68.035C861.94 68.937 862.087 69.993 862.087 71.203C862.087 72.369 861.911 73.4103 861.559 74.327C861.214 75.2363 860.701 75.9513 860.019 76.472C859.337 76.9927 858.497 77.253 857.5 77.253C856.158 77.253 855.105 76.769 854.343 75.801L854.211 77H852.594V60.753L854.442 60.522V66.924ZM857.06 75.757C858.028 75.757 858.772 75.383 859.293 74.635C859.813 73.887 860.074 72.7393 860.074 71.192C860.074 68.1707 859.164 66.66 857.346 66.66C856.7 66.66 856.132 66.8543 855.641 67.243C855.149 67.6243 854.75 68.0497 854.442 68.519V74.261C854.742 74.723 855.12 75.0897 855.575 75.361C856.037 75.625 856.532 75.757 857.06 75.757Z" fill="#FF55FF"/>
<path d="M92.505 74.47C92.505 74.9393 92.582 75.2803 92.736 75.493C92.89 75.7057 93.1283 75.8597 93.451 75.955L93 77.253C92.5013 77.187 92.065 77.0293 91.691 76.78C91.317 76.5233 91.0457 76.1383 90.877 75.625C90.459 76.1603 89.9347 76.5673 89.304 76.846C88.6807 77.1173 87.995 77.253 87.247 77.253C86.0883 77.253 85.1753 76.9267 84.508 76.274C83.8407 75.6213 83.507 74.756 83.507 73.678C83.507 72.4827 83.9727 71.566 84.904 70.928C85.8353 70.29 87.181 69.971 88.941 69.971H90.646V69.003C90.646 68.167 90.4003 67.5767 89.909 67.232C89.425 66.88 88.7503 66.704 87.885 66.704C87.5037 66.704 87.0563 66.7517 86.543 66.847C86.0297 66.935 85.4723 67.0853 84.871 67.298L84.387 65.901C85.091 65.637 85.7547 65.45 86.378 65.34C87.0087 65.23 87.6063 65.175 88.171 65.175C89.6083 65.175 90.69 65.5123 91.416 66.187C92.142 66.8617 92.505 67.771 92.505 68.915V74.47ZM87.72 75.845C88.292 75.845 88.8347 75.702 89.348 75.416C89.8687 75.1227 90.3013 74.7193 90.646 74.206V71.225H88.974C87.698 71.225 86.796 71.445 86.268 71.885C85.7473 72.325 85.487 72.9153 85.487 73.656C85.487 75.1153 86.2313 75.845 87.72 75.845ZM101.912 60.753V74.14C101.912 74.712 102.088 75.119 102.44 75.361C102.8 75.5957 103.262 75.713 103.826 75.713C104.171 75.713 104.501 75.6763 104.816 75.603C105.139 75.5297 105.458 75.4307 105.773 75.306L106.268 76.659C105.953 76.813 105.561 76.9487 105.091 77.066C104.629 77.1907 104.105 77.253 103.518 77.253C102.492 77.253 101.659 76.9707 101.021 76.406C100.383 75.834 100.064 75.0457 100.064 74.041V62.216H96.5114V60.753H101.912ZM114.983 59.994C115.393 59.994 115.72 60.1187 115.962 60.368C116.211 60.6173 116.336 60.9217 116.336 61.281C116.336 61.655 116.211 61.9703 115.962 62.227C115.72 62.4763 115.393 62.601 114.983 62.601C114.594 62.601 114.275 62.4763 114.026 62.227C113.776 61.9703 113.652 61.655 113.652 61.281C113.652 60.9217 113.776 60.6173 114.026 60.368C114.275 60.1187 114.594 59.994 114.983 59.994ZM116.457 65.417V75.537H119.724V77H111.034V75.537H114.609V66.88H111.144V65.417H116.457ZM129.021 75.658C129.601 75.658 130.14 75.5663 130.638 75.383C131.144 75.1923 131.61 74.9467 132.035 74.646L132.937 75.856C132.431 76.2887 131.823 76.6297 131.111 76.879C130.4 77.1283 129.703 77.253 129.021 77.253C127.87 77.253 126.887 77.0073 126.073 76.516C125.267 76.0173 124.651 75.3207 124.225 74.426C123.8 73.524 123.587 72.468 123.587 71.258C123.587 70.0993 123.8 69.0617 124.225 68.145C124.651 67.2283 125.27 66.506 126.084 65.978C126.898 65.4427 127.885 65.175 129.043 65.175C130.517 65.175 131.808 65.6223 132.915 66.517L132.013 67.749C131.009 67.0597 130.011 66.715 129.021 66.715C128.024 66.715 127.203 67.0927 126.557 67.848C125.912 68.596 125.589 69.7327 125.589 71.258C125.589 72.8053 125.912 73.9273 126.557 74.624C127.203 75.3133 128.024 75.658 129.021 75.658ZM138.429 71.863C138.48 73.205 138.832 74.184 139.485 74.8C140.145 75.4087 140.922 75.713 141.817 75.713C142.411 75.713 142.946 75.625 143.423 75.449C143.899 75.273 144.394 75.0127 144.908 74.668L145.777 75.889C145.241 76.3143 144.625 76.648 143.929 76.89C143.232 77.132 142.521 77.253 141.795 77.253C140.665 77.253 139.705 77 138.913 76.494C138.128 75.988 137.527 75.284 137.109 74.382C136.698 73.4727 136.493 72.4203 136.493 71.225C136.493 70.0517 136.698 69.0103 137.109 68.101C137.527 67.1917 138.113 66.4767 138.869 65.956C139.631 65.4353 140.526 65.175 141.553 65.175C143.012 65.175 144.16 65.681 144.996 66.693C145.839 67.705 146.261 69.091 146.261 70.851C146.261 71.049 146.253 71.236 146.239 71.412C146.231 71.588 146.224 71.7383 146.217 71.863H138.429ZM141.575 66.693C140.717 66.693 139.998 66.9973 139.419 67.606C138.839 68.2147 138.513 69.157 138.44 70.433H144.479C144.457 69.1937 144.185 68.2623 143.665 67.639C143.144 67.0083 142.447 66.693 141.575 66.693Z" fill="#55FFFF"/>
<path d="M183.505 117.47C183.505 117.939 183.582 118.28 183.736 118.493C183.89 118.706 184.128 118.86 184.451 118.955L184 120.253C183.501 120.187 183.065 120.029 182.691 119.78C182.317 119.523 182.046 119.138 181.877 118.625C181.459 119.16 180.935 119.567 180.304 119.846C179.681 120.117 178.995 120.253 178.247 120.253C177.088 120.253 176.175 119.927 175.508 119.274C174.841 118.621 174.507 117.756 174.507 116.678C174.507 115.483 174.973 114.566 175.904 113.928C176.835 113.29 178.181 112.971 179.941 112.971H181.646V112.003C181.646 111.167 181.4 110.577 180.909 110.232C180.425 109.88 179.75 109.704 178.885 109.704C178.504 109.704 178.056 109.752 177.543 109.847C177.03 109.935 176.472 110.085 175.871 110.298L175.387 108.901C176.091 108.637 176.755 108.45 177.378 108.34C178.009 108.23 178.606 108.175 179.171 108.175C180.608 108.175 181.69 108.512 182.416 109.187C183.142 109.862 183.505 110.771 183.505 111.915V117.47ZM178.72 118.845C179.292 118.845 179.835 118.702 180.348 118.416C180.869 118.123 181.301 117.719 181.646 117.206V114.225H179.974C178.698 114.225 177.796 114.445 177.268 114.885C176.747 115.325 176.487 115.915 176.487 116.656C176.487 118.115 177.231 118.845 178.72 118.845ZM188.402 120V108.417H189.975L190.118 110.023C190.588 109.429 191.174 108.974 191.878 108.659C192.582 108.336 193.272 108.175 193.946 108.175C195.083 108.175 195.908 108.476 196.421 109.077C196.942 109.678 197.202 110.514 197.202 111.585V120H195.354V112.949C195.354 112.157 195.31 111.519 195.222 111.035C195.134 110.551 194.947 110.195 194.661 109.968C194.383 109.741 193.954 109.627 193.374 109.627C192.92 109.627 192.491 109.726 192.087 109.924C191.691 110.122 191.336 110.371 191.02 110.672C190.712 110.965 190.456 111.262 190.25 111.563V120H188.402ZM201.594 120V108.417H203.167L203.31 110.023C203.779 109.429 204.366 108.974 205.07 108.659C205.774 108.336 206.463 108.175 207.138 108.175C208.274 108.175 209.099 108.476 209.613 109.077C210.133 109.678 210.394 110.514 210.394 111.585V120H208.546V112.949C208.546 112.157 208.502 111.519 208.414 111.035C208.326 110.551 208.139 110.195 207.853 109.968C207.574 109.741 207.145 109.627 206.566 109.627C206.111 109.627 205.682 109.726 205.279 109.924C204.883 110.122 204.527 110.371 204.212 110.672C203.904 110.965 203.647 111.262 203.442 111.563V120H201.594ZM219.196 108.175C220.832 108.175 222.067 108.721 222.903 109.814C223.739 110.907 224.157 112.37 224.157 114.203C224.157 115.384 223.967 116.429 223.585 117.338C223.204 118.247 222.643 118.962 221.902 119.483C221.162 119.996 220.252 120.253 219.174 120.253C217.539 120.253 216.3 119.703 215.456 118.603C214.613 117.503 214.191 116.044 214.191 114.225C214.191 113.037 214.382 111.988 214.763 111.079C215.145 110.162 215.706 109.451 216.446 108.945C217.194 108.432 218.111 108.175 219.196 108.175ZM219.196 109.682C218.199 109.682 217.444 110.052 216.93 110.793C216.424 111.534 216.171 112.678 216.171 114.225C216.171 115.758 216.421 116.894 216.919 117.635C217.425 118.368 218.177 118.735 219.174 118.735C220.172 118.735 220.92 118.365 221.418 117.624C221.924 116.883 222.177 115.743 222.177 114.203C222.177 112.663 221.928 111.526 221.429 110.793C220.931 110.052 220.186 109.682 219.196 109.682ZM229.825 108.417V116.623C229.825 117.386 229.982 117.936 230.298 118.273C230.613 118.61 231.104 118.779 231.772 118.779C232.41 118.779 233.011 118.599 233.576 118.24C234.148 117.873 234.591 117.441 234.907 116.942V108.417H236.755V120H235.182L235.028 118.438C234.573 119.025 234.008 119.476 233.334 119.791C232.666 120.099 231.995 120.253 231.321 120.253C230.199 120.253 229.359 119.956 228.802 119.362C228.252 118.761 227.977 117.921 227.977 116.843V108.417H229.825ZM241.168 120V108.417H242.741L242.884 110.023C243.353 109.429 243.94 108.974 244.644 108.659C245.348 108.336 246.037 108.175 246.712 108.175C247.849 108.175 248.674 108.476 249.187 109.077C249.708 109.678 249.968 110.514 249.968 111.585V120H248.12V112.949C248.12 112.157 248.076 111.519 247.988 111.035C247.9 110.551 247.713 110.195 247.427 109.968C247.148 109.741 246.719 109.627 246.14 109.627C245.685 109.627 245.256 109.726 244.853 109.924C244.457 110.122 244.101 110.371 243.786 110.672C243.478 110.965 243.221 111.262 243.016 111.563V120H241.168ZM259.595 118.658C260.175 118.658 260.714 118.566 261.212 118.383C261.718 118.192 262.184 117.947 262.609 117.646L263.511 118.856C263.005 119.289 262.397 119.63 261.685 119.879C260.974 120.128 260.277 120.253 259.595 120.253C258.444 120.253 257.461 120.007 256.647 119.516C255.841 119.017 255.225 118.321 254.799 117.426C254.374 116.524 254.161 115.468 254.161 114.258C254.161 113.099 254.374 112.062 254.799 111.145C255.225 110.228 255.844 109.506 256.658 108.978C257.472 108.443 258.459 108.175 259.617 108.175C261.091 108.175 262.382 108.622 263.489 109.517L262.587 110.749C261.583 110.06 260.585 109.715 259.595 109.715C258.598 109.715 257.777 110.093 257.131 110.848C256.486 111.596 256.163 112.733 256.163 114.258C256.163 115.805 256.486 116.927 257.131 117.624C257.777 118.313 258.598 118.658 259.595 118.658ZM269.003 114.863C269.054 116.205 269.406 117.184 270.059 117.8C270.719 118.409 271.496 118.713 272.391 118.713C272.985 118.713 273.52 118.625 273.997 118.449C274.474 118.273 274.969 118.013 275.482 117.668L276.351 118.889C275.816 119.314 275.2 119.648 274.503 119.89C273.806 120.132 273.095 120.253 272.369 120.253C271.24 120.253 270.279 120 269.487 119.494C268.702 118.988 268.101 118.284 267.683 117.382C267.272 116.473 267.067 115.42 267.067 114.225C267.067 113.052 267.272 112.01 267.683 111.101C268.101 110.192 268.688 109.477 269.443 108.956C270.206 108.435 271.1 108.175 272.127 108.175C273.586 108.175 274.734 108.681 275.57 109.693C276.413 110.705 276.835 112.091 276.835 113.851C276.835 114.049 276.828 114.236 276.813 114.412C276.806 114.588 276.798 114.738 276.791 114.863H269.003ZM272.149 109.693C271.291 109.693 270.572 109.997 269.993 110.606C269.414 111.215 269.087 112.157 269.014 113.433H275.053C275.031 112.194 274.76 111.262 274.239 110.639C273.718 110.008 273.022 109.693 272.149 109.693ZM296.398 112.3C296.398 113.833 296.57 115.156 296.915 116.271C297.267 117.378 297.791 118.39 298.488 119.307C299.184 120.224 300.057 121.144 301.106 122.068L300.138 123.08C298.95 122.112 297.93 121.118 297.08 120.099C296.236 119.08 295.587 117.943 295.133 116.689C294.685 115.435 294.462 113.972 294.462 112.3C294.462 110.628 294.685 109.165 295.133 107.911C295.587 106.657 296.236 105.52 297.08 104.501C297.93 103.482 298.95 102.488 300.138 101.52L301.106 102.532C300.05 103.471 299.173 104.395 298.477 105.304C297.78 106.213 297.259 107.222 296.915 108.329C296.57 109.436 296.398 110.76 296.398 112.3ZM315.309 106.932L316.2 108.351L308.434 113.114L316.2 117.921L315.21 119.274L306.85 114.049V112.157L315.309 106.932ZM325.497 108.175C326.524 108.175 327.342 108.424 327.95 108.923C328.566 109.422 329.01 110.126 329.281 111.035C329.553 111.937 329.688 112.993 329.688 114.203C329.688 115.369 329.523 116.41 329.193 117.327C328.871 118.236 328.379 118.951 327.719 119.472C327.059 119.993 326.227 120.253 325.222 120.253C323.954 120.253 322.934 119.806 322.164 118.911V124.433L320.316 124.664V108.417H321.889L322.043 110.034C322.469 109.44 322.975 108.982 323.561 108.659C324.148 108.336 324.793 108.175 325.497 108.175ZM325.057 109.66C324.419 109.66 323.855 109.854 323.363 110.243C322.872 110.624 322.472 111.05 322.164 111.519V117.261C322.465 117.708 322.843 118.064 323.297 118.328C323.759 118.585 324.265 118.713 324.815 118.713C325.776 118.713 326.498 118.346 326.982 117.613C327.466 116.88 327.708 115.739 327.708 114.192C327.708 111.171 326.825 109.66 325.057 109.66ZM333.618 120V118.581H335.422V109.836H333.618V108.417H336.83L337.171 111.156C337.618 110.203 338.161 109.466 338.799 108.945C339.437 108.424 340.28 108.164 341.329 108.164C341.652 108.164 341.938 108.19 342.187 108.241C342.444 108.285 342.704 108.344 342.968 108.417L342.704 112.333H341.186V109.869C341.157 109.869 341.124 109.869 341.087 109.869C339.312 109.869 338.04 111.138 337.27 113.675V118.581H339.624V120H333.618ZM351.11 108.175C352.746 108.175 353.981 108.721 354.817 109.814C355.653 110.907 356.071 112.37 356.071 114.203C356.071 115.384 355.881 116.429 355.499 117.338C355.118 118.247 354.557 118.962 353.816 119.483C353.076 119.996 352.166 120.253 351.088 120.253C349.453 120.253 348.214 119.703 347.37 118.603C346.527 117.503 346.105 116.044 346.105 114.225C346.105 113.037 346.296 111.988 346.677 111.079C347.059 110.162 347.62 109.451 348.36 108.945C349.108 108.432 350.025 108.175 351.11 108.175ZM351.11 109.682C350.113 109.682 349.358 110.052 348.844 110.793C348.338 111.534 348.085 112.678 348.085 114.225C348.085 115.758 348.335 116.894 348.833 117.635C349.339 118.368 350.091 118.735 351.088 118.735C352.086 118.735 352.834 118.365 353.332 117.624C353.838 116.883 354.091 115.743 354.091 114.203C354.091 112.663 353.842 111.526 353.343 110.793C352.845 110.052 352.1 109.682 351.11 109.682ZM365.743 102.994C366.153 102.994 366.483 103.119 366.733 103.368C366.982 103.617 367.107 103.922 367.107 104.281C367.107 104.655 366.982 104.97 366.733 105.227C366.483 105.476 366.153 105.601 365.743 105.601C365.347 105.601 365.028 105.476 364.786 105.227C364.544 104.97 364.423 104.655 364.423 104.281C364.423 103.922 364.544 103.617 364.786 103.368C365.028 103.119 365.347 102.994 365.743 102.994ZM367.47 108.417V118.141C367.47 119.432 367.176 120.513 366.59 121.386C366.01 122.259 365.171 122.955 364.071 123.476C362.971 124.004 361.643 124.4 360.089 124.664L359.781 123.234C360.925 123.043 361.937 122.757 362.817 122.376C363.697 121.995 364.382 121.474 364.874 120.814C365.372 120.154 365.622 119.303 365.622 118.262V109.88H360.804V108.417H367.47ZM374.534 114.863C374.585 116.205 374.937 117.184 375.59 117.8C376.25 118.409 377.027 118.713 377.922 118.713C378.516 118.713 379.051 118.625 379.528 118.449C380.005 118.273 380.5 118.013 381.013 117.668L381.882 118.889C381.347 119.314 380.731 119.648 380.034 119.89C379.337 120.132 378.626 120.253 377.9 120.253C376.771 120.253 375.81 120 375.018 119.494C374.233 118.988 373.632 118.284 373.214 117.382C372.803 116.473 372.598 115.42 372.598 114.225C372.598 113.052 372.803 112.01 373.214 111.101C373.632 110.192 374.219 109.477 374.974 108.956C375.737 108.435 376.631 108.175 377.658 108.175C379.117 108.175 380.265 108.681 381.101 109.693C381.944 110.705 382.366 112.091 382.366 113.851C382.366 114.049 382.359 114.236 382.344 114.412C382.337 114.588 382.329 114.738 382.322 114.863H374.534ZM377.68 109.693C376.822 109.693 376.103 109.997 375.524 110.606C374.945 111.215 374.618 112.157 374.545 113.433H380.584C380.562 112.194 380.291 111.262 379.77 110.639C379.249 110.008 378.553 109.693 377.68 109.693ZM391.51 118.658C392.089 118.658 392.628 118.566 393.127 118.383C393.633 118.192 394.098 117.947 394.524 117.646L395.425 118.856C394.92 119.289 394.311 119.63 393.6 119.879C392.888 120.128 392.192 120.253 391.51 120.253C390.358 120.253 389.376 120.007 388.562 119.516C387.755 119.017 387.139 118.321 386.714 117.426C386.288 116.524 386.076 115.468 386.076 114.258C386.076 113.099 386.288 112.062 386.714 111.145C387.139 110.228 387.759 109.506 388.573 108.978C389.387 108.443 390.373 108.175 391.532 108.175C393.006 108.175 394.296 108.622 395.404 109.517L394.502 110.749C393.497 110.06 392.5 109.715 391.51 109.715C390.512 109.715 389.691 110.093 389.046 110.848C388.4 111.596 388.078 112.733 388.078 114.258C388.078 115.805 388.4 116.927 389.046 117.624C389.691 118.313 390.512 118.658 391.51 118.658ZM408.661 119.417C408.265 119.681 407.785 119.886 407.22 120.033C406.655 120.18 406.102 120.253 405.559 120.253C404.312 120.253 403.352 119.927 402.677 119.274C402.002 118.621 401.665 117.782 401.665 116.755V109.847H399.003V108.417H401.665V105.788L403.513 105.568V108.417H407.517L407.297 109.847H403.513V116.733C403.513 117.378 403.682 117.87 404.019 118.207C404.364 118.544 404.932 118.713 405.724 118.713C406.157 118.713 406.556 118.662 406.923 118.559C407.29 118.456 407.631 118.324 407.946 118.163L408.661 119.417ZM412.634 114.797V113.191H421.456V114.797H412.634ZM430.237 102.994C430.647 102.994 430.974 103.119 431.216 103.368C431.465 103.617 431.59 103.922 431.59 104.281C431.59 104.655 431.465 104.97 431.216 105.227C430.974 105.476 430.647 105.601 430.237 105.601C429.848 105.601 429.529 105.476 429.28 105.227C429.03 104.97 428.906 104.655 428.906 104.281C428.906 103.922 429.03 103.617 429.28 103.368C429.529 103.119 429.848 102.994 430.237 102.994ZM431.711 108.417V118.537H434.978V120H426.288V118.537H429.863V109.88H426.398V108.417H431.711ZM445.969 103.522L447.817 103.753V120H446.2L446.024 118.471C445.591 119.087 445.093 119.538 444.528 119.824C443.971 120.11 443.373 120.253 442.735 120.253C441.73 120.253 440.902 120 440.249 119.494C439.596 118.988 439.112 118.284 438.797 117.382C438.482 116.473 438.324 115.42 438.324 114.225C438.324 113.066 438.504 112.032 438.863 111.123C439.222 110.206 439.739 109.488 440.414 108.967C441.096 108.439 441.914 108.175 442.867 108.175C444.15 108.175 445.184 108.63 445.969 109.539V103.522ZM443.351 109.66C442.383 109.66 441.639 110.038 441.118 110.793C440.597 111.548 440.337 112.692 440.337 114.225C440.337 117.246 441.265 118.757 443.12 118.757C443.773 118.757 444.334 118.574 444.803 118.207C445.272 117.833 445.661 117.408 445.969 116.931V111.145C445.654 110.676 445.272 110.313 444.825 110.056C444.378 109.792 443.886 109.66 443.351 109.66ZM452.847 106.932L461.306 112.157V114.049L452.957 119.274L451.956 117.91L459.722 113.114L451.956 108.329L452.847 106.932ZM469.811 116.381C470.317 116.381 470.739 116.553 471.076 116.898C471.421 117.243 471.593 117.657 471.593 118.141C471.593 118.405 471.56 118.673 471.494 118.944C471.435 119.215 471.325 119.523 471.164 119.868L469.382 123.949H467.71L468.766 119.604C468.289 119.259 468.051 118.772 468.051 118.141C468.051 117.657 468.22 117.243 468.557 116.898C468.894 116.553 469.312 116.381 469.811 116.381ZM499.989 106.932L500.88 108.351L493.114 113.114L500.88 117.921L499.89 119.274L491.53 114.049V112.157L499.989 106.932ZM505.106 120V118.581H506.91V109.836H505.106V108.417H508.318L508.659 111.156C509.106 110.203 509.649 109.466 510.287 108.945C510.925 108.424 511.768 108.164 512.817 108.164C513.14 108.164 513.426 108.19 513.675 108.241C513.932 108.285 514.192 108.344 514.456 108.417L514.192 112.333H512.674V109.869C512.645 109.869 512.612 109.869 512.575 109.869C510.8 109.869 509.528 111.138 508.758 113.675V118.581H511.112V120H505.106ZM519.64 114.863C519.691 116.205 520.043 117.184 520.696 117.8C521.356 118.409 522.133 118.713 523.028 118.713C523.622 118.713 524.157 118.625 524.634 118.449C525.11 118.273 525.605 118.013 526.119 117.668L526.988 118.889C526.452 119.314 525.836 119.648 525.14 119.89C524.443 120.132 523.732 120.253 523.006 120.253C521.876 120.253 520.916 120 520.124 119.494C519.339 118.988 518.738 118.284 518.32 117.382C517.909 116.473 517.704 115.42 517.704 114.225C517.704 113.052 517.909 112.01 518.32 111.101C518.738 110.192 519.324 109.477 520.08 108.956C520.842 108.435 521.737 108.175 522.764 108.175C524.223 108.175 525.371 108.681 526.207 109.693C527.05 110.705 527.472 112.091 527.472 113.851C527.472 114.049 527.464 114.236 527.45 114.412C527.442 114.588 527.435 114.738 527.428 114.863H519.64ZM522.786 109.693C521.928 109.693 521.209 109.997 520.63 110.606C520.05 111.215 519.724 112.157 519.651 113.433H525.69C525.668 112.194 525.396 111.262 524.876 110.639C524.355 110.008 523.658 109.693 522.786 109.693ZM538.221 103.522C538.844 103.522 539.409 103.577 539.915 103.687C540.421 103.797 540.901 103.951 541.356 104.149L540.762 105.524C540.388 105.363 539.988 105.242 539.563 105.161C539.145 105.08 538.716 105.04 538.276 105.04C536.655 105.04 535.845 105.682 535.845 106.965V109.319H539.772L539.574 110.771H535.845V120H533.997V110.771H531.236V109.319H533.997V107.009C533.997 106.29 534.18 105.671 534.547 105.15C534.921 104.629 535.427 104.23 536.065 103.951C536.703 103.665 537.422 103.522 538.221 103.522ZM545.186 106.932L553.645 112.157V114.049L545.296 119.274L544.295 117.91L552.061 113.114L544.295 108.329L545.186 106.932ZM562.151 116.381C562.657 116.381 563.078 116.553 563.416 116.898C563.76 117.243 563.933 117.657 563.933 118.141C563.933 118.405 563.9 118.673 563.834 118.944C563.775 119.215 563.665 119.523 563.504 119.868L561.722 123.949H560.05L561.106 119.604C560.629 119.259 560.391 118.772 560.391 118.141C560.391 117.657 560.559 117.243 560.897 116.898C561.234 116.553 561.652 116.381 562.151 116.381ZM592.329 106.932L593.22 108.351L585.454 113.114L593.22 117.921L592.23 119.274L583.87 114.049V112.157L592.329 106.932ZM599.184 103.577V110.001C599.639 109.4 600.196 108.945 600.856 108.637C601.523 108.329 602.198 108.175 602.88 108.175C604.009 108.175 604.834 108.476 605.355 109.077C605.876 109.678 606.136 110.514 606.136 111.585V120H604.288V111.629C604.288 110.932 604.127 110.426 603.804 110.111C603.481 109.788 602.975 109.627 602.286 109.627C601.846 109.627 601.428 109.726 601.032 109.924C600.636 110.122 600.28 110.368 599.965 110.661C599.65 110.954 599.389 111.255 599.184 111.563V120H597.336V103.775L599.184 103.577ZM618.821 117.47C618.821 117.939 618.898 118.28 619.052 118.493C619.206 118.706 619.445 118.86 619.767 118.955L619.316 120.253C618.818 120.187 618.381 120.029 618.007 119.78C617.633 119.523 617.362 119.138 617.193 118.625C616.775 119.16 616.251 119.567 615.62 119.846C614.997 120.117 614.311 120.253 613.563 120.253C612.405 120.253 611.492 119.927 610.824 119.274C610.157 118.621 609.823 117.756 609.823 116.678C609.823 115.483 610.289 114.566 611.22 113.928C612.152 113.29 613.497 112.971 615.257 112.971H616.962V112.003C616.962 111.167 616.717 110.577 616.225 110.232C615.741 109.88 615.067 109.704 614.201 109.704C613.82 109.704 613.373 109.752 612.859 109.847C612.346 109.935 611.789 110.085 611.187 110.298L610.703 108.901C611.407 108.637 612.071 108.45 612.694 108.34C613.325 108.23 613.923 108.175 614.487 108.175C615.925 108.175 617.006 108.512 617.732 109.187C618.458 109.862 618.821 110.771 618.821 111.915V117.47ZM614.036 118.845C614.608 118.845 615.151 118.702 615.664 118.416C616.185 118.123 616.618 117.719 616.962 117.206V114.225H615.29C614.014 114.225 613.112 114.445 612.584 114.885C612.064 115.325 611.803 115.915 611.803 116.656C611.803 118.115 612.548 118.845 614.036 118.845ZM627.657 118.724C628.551 118.724 629.255 118.559 629.769 118.229C630.282 117.899 630.539 117.452 630.539 116.887C630.539 116.542 630.473 116.242 630.341 115.985C630.216 115.728 629.956 115.497 629.56 115.292C629.164 115.079 628.555 114.87 627.734 114.665C626.934 114.467 626.238 114.24 625.644 113.983C625.057 113.719 624.599 113.378 624.269 112.96C623.946 112.542 623.785 111.999 623.785 111.332C623.785 110.357 624.192 109.587 625.006 109.022C625.82 108.457 626.879 108.175 628.185 108.175C629.116 108.175 629.926 108.3 630.616 108.549C631.312 108.798 631.903 109.099 632.387 109.451L631.573 110.705C631.14 110.404 630.656 110.159 630.121 109.968C629.593 109.77 628.955 109.671 628.207 109.671C627.297 109.671 626.652 109.814 626.271 110.1C625.889 110.379 625.699 110.742 625.699 111.189C625.699 111.534 625.79 111.82 625.974 112.047C626.164 112.267 626.483 112.465 626.931 112.641C627.378 112.817 627.994 113.011 628.779 113.224C629.534 113.429 630.194 113.671 630.759 113.95C631.323 114.229 631.76 114.595 632.068 115.05C632.383 115.497 632.541 116.08 632.541 116.799C632.541 117.62 632.306 118.288 631.837 118.801C631.367 119.307 630.759 119.677 630.011 119.912C629.27 120.139 628.485 120.253 627.657 120.253C626.608 120.253 625.713 120.103 624.973 119.802C624.239 119.494 623.623 119.124 623.125 118.691L624.181 117.47C624.635 117.844 625.156 118.148 625.743 118.383C626.337 118.61 626.975 118.724 627.657 118.724ZM638.758 103.577V110.001C639.213 109.4 639.77 108.945 640.43 108.637C641.098 108.329 641.772 108.175 642.454 108.175C643.584 108.175 644.409 108.476 644.929 109.077C645.45 109.678 645.71 110.514 645.71 111.585V120H643.862V111.629C643.862 110.932 643.701 110.426 643.378 110.111C643.056 109.788 642.55 109.627 641.86 109.627C641.42 109.627 641.002 109.726 640.606 109.924C640.21 110.122 639.855 110.368 639.539 110.661C639.224 110.954 638.964 111.255 638.758 111.563V120H636.91V103.775L638.758 103.577ZM650.718 106.932L659.177 112.157V114.049L650.828 119.274L649.827 117.91L657.593 113.114L649.827 108.329L650.718 106.932ZM669.607 112.3C669.607 110.76 669.435 109.436 669.09 108.329C668.745 107.222 668.225 106.213 667.528 105.304C666.831 104.395 665.955 103.471 664.899 102.532L665.867 101.52C667.055 102.488 668.071 103.482 668.914 104.501C669.765 105.52 670.414 106.657 670.861 107.911C671.316 109.165 671.543 110.628 671.543 112.3C671.543 113.972 671.316 115.435 670.861 116.689C670.414 117.943 669.765 119.08 668.914 120.099C668.071 121.118 667.055 122.112 665.867 123.08L664.899 122.068C665.948 121.144 666.82 120.224 667.517 119.307C668.214 118.39 668.734 117.378 669.079 116.271C669.431 115.156 669.607 113.833 669.607 112.3Z" fill="#55FFFF"/>
<path d="M365.627 232.185L366.199 233.923C365.7 234.077 365.172 234.172 364.615 234.209C364.065 234.246 363.464 234.264 362.811 234.264C364.153 234.88 364.824 235.852 364.824 237.179C364.824 238.323 364.439 239.265 363.669 240.006C362.906 240.747 361.839 241.117 360.468 241.117C360.079 241.117 359.753 241.099 359.489 241.062C359.232 241.025 358.983 240.97 358.741 240.897C358.565 241.022 358.418 241.187 358.301 241.392C358.191 241.59 358.136 241.799 358.136 242.019C358.136 242.298 358.246 242.529 358.466 242.712C358.686 242.895 359.093 242.987 359.687 242.987H361.777C362.554 242.987 363.251 243.126 363.867 243.405C364.483 243.684 364.971 244.061 365.33 244.538C365.689 245.007 365.869 245.539 365.869 246.133C365.869 247.27 365.385 248.142 364.417 248.751C363.456 249.36 362.096 249.664 360.336 249.664C359.104 249.664 358.132 249.536 357.421 249.279C356.71 249.03 356.2 248.645 355.892 248.124C355.591 247.611 355.441 246.962 355.441 246.177H357.113C357.113 246.624 357.201 246.995 357.377 247.288C357.553 247.581 357.872 247.798 358.334 247.937C358.796 248.084 359.46 248.157 360.325 248.157C361.601 248.157 362.532 247.996 363.119 247.673C363.706 247.358 363.999 246.885 363.999 246.254C363.999 245.704 363.75 245.29 363.251 245.011C362.752 244.732 362.129 244.593 361.381 244.593H359.313C358.308 244.593 357.571 244.373 357.102 243.933C356.633 243.493 356.398 242.987 356.398 242.415C356.398 241.623 356.823 240.948 357.674 240.391C356.376 239.702 355.727 238.635 355.727 237.19C355.727 236.405 355.921 235.712 356.31 235.111C356.699 234.502 357.241 234.026 357.938 233.681C358.635 233.336 359.438 233.164 360.347 233.164C361.322 233.164 362.114 233.124 362.723 233.043C363.332 232.962 363.852 232.849 364.285 232.702C364.725 232.555 365.172 232.383 365.627 232.185ZM360.347 234.517C359.416 234.517 358.726 234.77 358.279 235.276C357.839 235.782 357.619 236.42 357.619 237.19C357.619 237.975 357.843 238.62 358.29 239.126C358.745 239.632 359.445 239.885 360.391 239.885C361.205 239.885 361.828 239.647 362.261 239.17C362.694 238.693 362.91 238.03 362.91 237.179C362.91 235.404 362.056 234.517 360.347 234.517ZM373.791 227.994C374.202 227.994 374.528 228.119 374.77 228.368C375.02 228.617 375.144 228.922 375.144 229.281C375.144 229.655 375.02 229.97 374.77 230.227C374.528 230.476 374.202 230.601 373.791 230.601C373.403 230.601 373.084 230.476 372.834 230.227C372.585 229.97 372.46 229.655 372.46 229.281C372.46 228.922 372.585 228.617 372.834 228.368C373.084 228.119 373.403 227.994 373.791 227.994ZM375.265 233.417V243.537H378.532V245H369.842V243.537H373.417V234.88H369.952V233.417H375.265ZM391.79 244.417C391.394 244.681 390.913 244.886 390.349 245.033C389.784 245.18 389.23 245.253 388.688 245.253C387.441 245.253 386.48 244.927 385.806 244.274C385.131 243.621 384.794 242.782 384.794 241.755V234.847H382.132V233.417H384.794V230.788L386.642 230.568V233.417H390.646L390.426 234.847H386.642V241.733C386.642 242.378 386.81 242.87 387.148 243.207C387.492 243.544 388.061 243.713 388.853 243.713C389.285 243.713 389.685 243.662 390.052 243.559C390.418 243.456 390.759 243.324 391.075 243.163L391.79 244.417ZM415.819 228.522C416.442 228.522 417.007 228.577 417.513 228.687C418.019 228.797 418.499 228.951 418.954 229.149L418.36 230.524C417.986 230.363 417.586 230.242 417.161 230.161C416.743 230.08 416.314 230.04 415.874 230.04C414.253 230.04 413.443 230.682 413.443 231.965V234.319H417.37L417.172 235.771H413.443V245H411.595V235.771H408.834V234.319H411.595V232.009C411.595 231.29 411.778 230.671 412.145 230.15C412.519 229.629 413.025 229.23 413.663 228.951C414.301 228.665 415.019 228.522 415.819 228.522ZM423.62 239.863C423.671 241.205 424.023 242.184 424.676 242.8C425.336 243.409 426.113 243.713 427.008 243.713C427.602 243.713 428.137 243.625 428.614 243.449C429.091 243.273 429.586 243.013 430.099 242.668L430.968 243.889C430.433 244.314 429.817 244.648 429.12 244.89C428.423 245.132 427.712 245.253 426.986 245.253C425.857 245.253 424.896 245 424.104 244.494C423.319 243.988 422.718 243.284 422.3 242.382C421.889 241.473 421.684 240.42 421.684 239.225C421.684 238.052 421.889 237.01 422.3 236.101C422.718 235.192 423.305 234.477 424.06 233.956C424.823 233.435 425.717 233.175 426.744 233.175C428.203 233.175 429.351 233.681 430.187 234.693C431.03 235.705 431.452 237.091 431.452 238.851C431.452 239.049 431.445 239.236 431.43 239.412C431.423 239.588 431.415 239.738 431.408 239.863H423.62ZM426.766 234.693C425.908 234.693 425.189 234.997 424.61 235.606C424.031 236.215 423.704 237.157 423.631 238.433H429.67C429.648 237.194 429.377 236.262 428.856 235.639C428.335 235.008 427.639 234.693 426.766 234.693ZM444.555 244.417C444.159 244.681 443.679 244.886 443.114 245.033C442.55 245.18 441.996 245.253 441.453 245.253C440.207 245.253 439.246 244.927 438.571 244.274C437.897 243.621 437.559 242.782 437.559 241.755V234.847H434.897V233.417H437.559V230.788L439.407 230.568V233.417H443.411L443.191 234.847H439.407V241.733C439.407 242.378 439.576 242.87 439.913 243.207C440.258 243.544 440.826 243.713 441.618 243.713C442.051 243.713 442.451 243.662 442.817 243.559C443.184 243.456 443.525 243.324 443.84 243.163L444.555 244.417ZM453.787 243.658C454.366 243.658 454.905 243.566 455.404 243.383C455.91 243.192 456.376 242.947 456.801 242.646L457.703 243.856C457.197 244.289 456.588 244.63 455.877 244.879C455.166 245.128 454.469 245.253 453.787 245.253C452.636 245.253 451.653 245.007 450.839 244.516C450.032 244.017 449.416 243.321 448.991 242.426C448.566 241.524 448.353 240.468 448.353 239.258C448.353 238.099 448.566 237.062 448.991 236.145C449.416 235.228 450.036 234.506 450.85 233.978C451.664 233.443 452.65 233.175 453.809 233.175C455.283 233.175 456.574 233.622 457.681 234.517L456.779 235.749C455.774 235.06 454.777 234.715 453.787 234.715C452.79 234.715 451.968 235.093 451.323 235.848C450.678 236.596 450.355 237.733 450.355 239.258C450.355 240.805 450.678 241.927 451.323 242.624C451.968 243.313 452.79 243.658 453.787 243.658ZM463.59 228.577V235.001C464.045 234.4 464.602 233.945 465.262 233.637C465.93 233.329 466.604 233.175 467.286 233.175C468.416 233.175 469.241 233.476 469.761 234.077C470.282 234.678 470.542 235.514 470.542 236.585V245H468.694V236.629C468.694 235.932 468.533 235.426 468.21 235.111C467.888 234.788 467.382 234.627 466.692 234.627C466.252 234.627 465.834 234.726 465.438 234.924C465.042 235.122 464.687 235.368 464.371 235.661C464.056 235.954 463.796 236.255 463.59 236.563V245H461.742V228.775L463.59 228.577ZM488.235 245V243.581H490.039V234.836H488.235V233.417H491.447L491.788 236.156C492.235 235.203 492.778 234.466 493.416 233.945C494.054 233.424 494.897 233.164 495.946 233.164C496.269 233.164 496.555 233.19 496.804 233.241C497.061 233.285 497.321 233.344 497.585 233.417L497.321 237.333H495.803V234.869C495.774 234.869 495.741 234.869 495.704 234.869C493.929 234.869 492.657 236.138 491.887 238.675V243.581H494.241V245H488.235ZM509.61 242.47C509.61 242.939 509.687 243.28 509.841 243.493C509.995 243.706 510.234 243.86 510.556 243.955L510.105 245.253C509.607 245.187 509.17 245.029 508.796 244.78C508.422 244.523 508.151 244.138 507.982 243.625C507.564 244.16 507.04 244.567 506.409 244.846C505.786 245.117 505.1 245.253 504.352 245.253C503.194 245.253 502.281 244.927 501.613 244.274C500.946 243.621 500.612 242.756 500.612 241.678C500.612 240.483 501.078 239.566 502.009 238.928C502.941 238.29 504.286 237.971 506.046 237.971H507.751V237.003C507.751 236.167 507.506 235.577 507.014 235.232C506.53 234.88 505.856 234.704 504.99 234.704C504.609 234.704 504.162 234.752 503.648 234.847C503.135 234.935 502.578 235.085 501.976 235.298L501.492 233.901C502.196 233.637 502.86 233.45 503.483 233.34C504.114 233.23 504.712 233.175 505.276 233.175C506.714 233.175 507.795 233.512 508.521 234.187C509.247 234.862 509.61 235.771 509.61 236.915V242.47ZM504.825 243.845C505.397 243.845 505.94 243.702 506.453 243.416C506.974 243.123 507.407 242.719 507.751 242.206V239.225H506.079C504.803 239.225 503.901 239.445 503.373 239.885C502.853 240.325 502.592 240.915 502.592 241.656C502.592 243.115 503.337 243.845 504.825 243.845ZM521.438 228.522L523.286 228.753V245H521.669L521.493 243.471C521.06 244.087 520.562 244.538 519.997 244.824C519.44 245.11 518.842 245.253 518.204 245.253C517.199 245.253 516.371 245 515.718 244.494C515.065 243.988 514.581 243.284 514.266 242.382C513.951 241.473 513.793 240.42 513.793 239.225C513.793 238.066 513.973 237.032 514.332 236.123C514.691 235.206 515.208 234.488 515.883 233.967C516.565 233.439 517.383 233.175 518.336 233.175C519.619 233.175 520.653 233.63 521.438 234.539V228.522ZM518.82 234.66C517.852 234.66 517.108 235.038 516.587 235.793C516.066 236.548 515.806 237.692 515.806 239.225C515.806 242.246 516.734 243.757 518.589 243.757C519.242 243.757 519.803 243.574 520.272 243.207C520.741 242.833 521.13 242.408 521.438 241.931V236.145C521.123 235.676 520.741 235.313 520.294 235.056C519.847 234.792 519.355 234.66 518.82 234.66ZM530.295 235.529C530.295 235.038 530.464 234.62 530.801 234.275C531.146 233.93 531.568 233.758 532.066 233.758C532.58 233.758 533.005 233.93 533.342 234.275C533.687 234.62 533.859 235.038 533.859 235.529C533.859 236.02 533.687 236.442 533.342 236.794C533.005 237.146 532.58 237.322 532.066 237.322C531.568 237.322 531.146 237.146 530.801 236.794C530.464 236.442 530.295 236.02 530.295 235.529ZM530.295 243.46C530.295 242.983 530.464 242.569 530.801 242.217C531.146 241.865 531.568 241.689 532.066 241.689C532.58 241.689 533.005 241.865 533.342 242.217C533.687 242.569 533.859 242.983 533.859 243.46C533.859 243.959 533.687 244.384 533.342 244.736C533.005 245.081 532.58 245.253 532.066 245.253C531.568 245.253 531.146 245.081 530.801 244.736C530.464 244.384 530.295 243.959 530.295 243.46ZM542.422 247.266L540.926 246.606L550.342 227.191L551.816 227.917L542.422 247.266ZM553.422 247.266L551.926 246.606L561.342 227.191L562.816 227.917L553.422 247.266ZM575.458 231.932L576.349 233.351L568.583 238.114L576.349 242.921L575.359 244.274L566.999 239.049V237.157L575.458 231.932ZM585.646 233.175C586.673 233.175 587.49 233.424 588.099 233.923C588.715 234.422 589.159 235.126 589.43 236.035C589.701 236.937 589.837 237.993 589.837 239.203C589.837 240.369 589.672 241.41 589.342 242.327C589.019 243.236 588.528 243.951 587.868 244.472C587.208 244.993 586.376 245.253 585.371 245.253C584.102 245.253 583.083 244.806 582.313 243.911V249.433L580.465 249.664V233.417H582.038L582.192 235.034C582.617 234.44 583.123 233.982 583.71 233.659C584.297 233.336 584.942 233.175 585.646 233.175ZM585.206 234.66C584.568 234.66 584.003 234.854 583.512 235.243C583.021 235.624 582.621 236.05 582.313 236.519V242.261C582.614 242.708 582.991 243.064 583.446 243.328C583.908 243.585 584.414 243.713 584.964 243.713C585.925 243.713 586.647 243.346 587.131 242.613C587.615 241.88 587.857 240.739 587.857 239.192C587.857 236.171 586.973 234.66 585.206 234.66ZM593.766 245V243.581H595.57V234.836H593.766V233.417H596.978L597.319 236.156C597.767 235.203 598.309 234.466 598.947 233.945C599.585 233.424 600.429 233.164 601.477 233.164C601.8 233.164 602.086 233.19 602.335 233.241C602.592 233.285 602.852 233.344 603.116 233.417L602.852 237.333H601.334V234.869C601.305 234.869 601.272 234.869 601.235 234.869C599.461 234.869 598.188 236.138 597.418 238.675V243.581H599.772V245H593.766ZM611.259 233.175C612.894 233.175 614.13 233.721 614.966 234.814C615.802 235.907 616.22 237.37 616.22 239.203C616.22 240.384 616.029 241.429 615.648 242.338C615.266 243.247 614.705 243.962 613.965 244.483C613.224 244.996 612.315 245.253 611.237 245.253C609.601 245.253 608.362 244.703 607.519 243.603C606.675 242.503 606.254 241.044 606.254 239.225C606.254 238.037 606.444 236.988 606.826 236.079C607.207 235.162 607.768 234.451 608.509 233.945C609.257 233.432 610.173 233.175 611.259 233.175ZM611.259 234.682C610.261 234.682 609.506 235.052 608.993 235.793C608.487 236.534 608.234 237.678 608.234 239.225C608.234 240.758 608.483 241.894 608.982 242.635C609.488 243.368 610.239 243.735 611.237 243.735C612.234 243.735 612.982 243.365 613.481 242.624C613.987 241.883 614.24 240.743 614.24 239.203C614.24 237.663 613.99 236.526 613.492 235.793C612.993 235.052 612.249 234.682 611.259 234.682ZM625.891 227.994C626.302 227.994 626.632 228.119 626.881 228.368C627.13 228.617 627.255 228.922 627.255 229.281C627.255 229.655 627.13 229.97 626.881 230.227C626.632 230.476 626.302 230.601 625.891 230.601C625.495 230.601 625.176 230.476 624.934 230.227C624.692 229.97 624.571 229.655 624.571 229.281C624.571 228.922 624.692 228.617 624.934 228.368C625.176 228.119 625.495 227.994 625.891 227.994ZM627.618 233.417V243.141C627.618 244.432 627.325 245.513 626.738 246.386C626.159 247.259 625.319 247.955 624.219 248.476C623.119 249.004 621.792 249.4 620.237 249.664L619.929 248.234C621.073 248.043 622.085 247.757 622.965 247.376C623.845 246.995 624.531 246.474 625.022 245.814C625.521 245.154 625.77 244.303 625.77 243.262V234.88H620.952V233.417H627.618ZM634.683 239.863C634.734 241.205 635.086 242.184 635.739 242.8C636.399 243.409 637.176 243.713 638.071 243.713C638.665 243.713 639.2 243.625 639.677 243.449C640.153 243.273 640.648 243.013 641.162 242.668L642.031 243.889C641.495 244.314 640.879 244.648 640.183 244.89C639.486 245.132 638.775 245.253 638.049 245.253C636.919 245.253 635.959 245 635.167 244.494C634.382 243.988 633.781 243.284 633.363 242.382C632.952 241.473 632.747 240.42 632.747 239.225C632.747 238.052 632.952 237.01 633.363 236.101C633.781 235.192 634.367 234.477 635.123 233.956C635.885 233.435 636.78 233.175 637.807 233.175C639.266 233.175 640.414 233.681 641.25 234.693C642.093 235.705 642.515 237.091 642.515 238.851C642.515 239.049 642.507 239.236 642.493 239.412C642.485 239.588 642.478 239.738 642.471 239.863H634.683ZM637.829 234.693C636.971 234.693 636.252 234.997 635.673 235.606C635.093 236.215 634.767 237.157 634.694 238.433H640.733C640.711 237.194 640.439 236.262 639.919 235.639C639.398 235.008 638.701 234.693 637.829 234.693ZM651.658 243.658C652.237 243.658 652.776 243.566 653.275 243.383C653.781 243.192 654.247 242.947 654.672 242.646L655.574 243.856C655.068 244.289 654.459 244.63 653.748 244.879C653.037 245.128 652.34 245.253 651.658 245.253C650.507 245.253 649.524 245.007 648.71 244.516C647.903 244.017 647.287 243.321 646.862 242.426C646.437 241.524 646.224 240.468 646.224 239.258C646.224 238.099 646.437 237.062 646.862 236.145C647.287 235.228 647.907 234.506 648.721 233.978C649.535 233.443 650.521 233.175 651.68 233.175C653.154 233.175 654.445 233.622 655.552 234.517L654.65 235.749C653.645 235.06 652.648 234.715 651.658 234.715C650.661 234.715 649.839 235.093 649.194 235.848C648.549 236.596 648.226 237.733 648.226 239.258C648.226 240.805 648.549 241.927 649.194 242.624C649.839 243.313 650.661 243.658 651.658 243.658ZM668.809 244.417C668.413 244.681 667.933 244.886 667.368 245.033C666.804 245.18 666.25 245.253 665.707 245.253C664.461 245.253 663.5 244.927 662.825 244.274C662.151 243.621 661.813 242.782 661.813 241.755V234.847H659.151V233.417H661.813V230.788L663.661 230.568V233.417H667.665L667.445 234.847H663.661V241.733C663.661 242.378 663.83 242.87 664.167 243.207C664.512 243.544 665.08 243.713 665.872 243.713C666.305 243.713 666.705 243.662 667.071 243.559C667.438 243.456 667.779 243.324 668.094 243.163L668.809 244.417ZM672.783 239.797V238.191H681.605V239.797H672.783ZM690.385 227.994C690.796 227.994 691.122 228.119 691.364 228.368C691.613 228.617 691.738 228.922 691.738 229.281C691.738 229.655 691.613 229.97 691.364 230.227C691.122 230.476 690.796 230.601 690.385 230.601C689.996 230.601 689.677 230.476 689.428 230.227C689.179 229.97 689.054 229.655 689.054 229.281C689.054 228.922 689.179 228.617 689.428 228.368C689.677 228.119 689.996 227.994 690.385 227.994ZM691.859 233.417V243.537H695.126V245H686.436V243.537H690.011V234.88H686.546V233.417H691.859ZM706.118 228.522L707.966 228.753V245H706.349L706.173 243.471C705.74 244.087 705.241 244.538 704.677 244.824C704.119 245.11 703.522 245.253 702.884 245.253C701.879 245.253 701.05 245 700.398 244.494C699.745 243.988 699.261 243.284 698.946 242.382C698.63 241.473 698.473 240.42 698.473 239.225C698.473 238.066 698.652 237.032 699.012 236.123C699.371 235.206 699.888 234.488 700.563 233.967C701.245 233.439 702.062 233.175 703.016 233.175C704.299 233.175 705.333 233.63 706.118 234.539V228.522ZM703.5 234.66C702.532 234.66 701.787 235.038 701.267 235.793C700.746 236.548 700.486 237.692 700.486 239.225C700.486 242.246 701.413 243.757 703.269 243.757C703.921 243.757 704.482 243.574 704.952 243.207C705.421 242.833 705.81 242.408 706.118 241.931V236.145C705.802 235.676 705.421 235.313 704.974 235.056C704.526 234.792 704.035 234.66 703.5 234.66ZM712.995 231.932L721.454 237.157V239.049L713.105 244.274L712.104 242.91L719.87 238.114L712.104 233.329L712.995 231.932ZM726.01 247.266L724.514 246.606L733.93 227.191L735.404 227.917L726.01 247.266ZM746.946 231.932L747.837 233.351L740.071 238.114L747.837 242.921L746.847 244.274L738.487 239.049V237.157L746.946 231.932ZM752.063 245V243.581H753.867V234.836H752.063V233.417H755.275L755.616 236.156C756.064 235.203 756.606 234.466 757.244 233.945C757.882 233.424 758.726 233.164 759.774 233.164C760.097 233.164 760.383 233.19 760.632 233.241C760.889 233.285 761.149 233.344 761.413 233.417L761.149 237.333H759.631V234.869C759.602 234.869 759.569 234.869 759.532 234.869C757.758 234.869 756.485 236.138 755.715 238.675V243.581H758.069V245H752.063ZM766.597 239.863C766.648 241.205 767 242.184 767.653 242.8C768.313 243.409 769.09 243.713 769.985 243.713C770.579 243.713 771.114 243.625 771.591 243.449C772.067 243.273 772.562 243.013 773.076 242.668L773.945 243.889C773.409 244.314 772.793 244.648 772.097 244.89C771.4 245.132 770.689 245.253 769.963 245.253C768.833 245.253 767.873 245 767.081 244.494C766.296 243.988 765.695 243.284 765.277 242.382C764.866 241.473 764.661 240.42 764.661 239.225C764.661 238.052 764.866 237.01 765.277 236.101C765.695 235.192 766.281 234.477 767.037 233.956C767.799 233.435 768.694 233.175 769.721 233.175C771.18 233.175 772.328 233.681 773.164 234.693C774.007 235.705 774.429 237.091 774.429 238.851C774.429 239.049 774.421 239.236 774.407 239.412C774.399 239.588 774.392 239.738 774.385 239.863H766.597ZM769.743 234.693C768.885 234.693 768.166 234.997 767.587 235.606C767.007 236.215 766.681 237.157 766.608 238.433H772.647C772.625 237.194 772.353 236.262 771.833 235.639C771.312 235.008 770.615 234.693 769.743 234.693ZM785.178 228.522C785.801 228.522 786.366 228.577 786.872 228.687C787.378 228.797 787.858 228.951 788.313 229.149L787.719 230.524C787.345 230.363 786.945 230.242 786.52 230.161C786.102 230.08 785.673 230.04 785.233 230.04C783.612 230.04 782.802 230.682 782.802 231.965V234.319H786.729L786.531 235.771H782.802V245H780.954V235.771H778.193V234.319H780.954V232.009C780.954 231.29 781.137 230.671 781.504 230.15C781.878 229.629 782.384 229.23 783.022 228.951C783.66 228.665 784.379 228.522 785.178 228.522ZM792.143 231.932L800.602 237.157V239.049L792.253 244.274L791.252 242.91L799.018 238.114L791.252 233.329L792.143 231.932Z" fill="#FF55FF"/>
<path d="M824.354 136.354C824.549 136.158 824.549 135.842 824.354 135.646L821.172 132.464C820.976 132.269 820.66 132.269 820.464 132.464C820.269 132.66 820.269 132.976 820.464 133.172L823.293 136L820.464 138.828C820.269 139.024 820.269 139.34 820.464 139.536C820.66 139.731 820.976 139.731 821.172 139.536L824.354 136.354ZM154 136.5H824V135.5H154V136.5Z" fill="#55FFFF"/>
<path d="M153.646 260.646C153.451 260.842 153.451 261.158 153.646 261.353L156.828 264.535C157.024 264.731 157.34 264.731 157.536 264.535C157.731 264.34 157.731 264.024 157.536 263.828L154.707 261L157.536 258.172C157.731 257.976 157.731 257.66 157.536 257.464C157.34 257.269 157.024 257.269 156.828 257.464L153.646 260.646ZM824 260.5L154 260.5L154 261.5L824 261.5L824 260.5Z" fill="#FF55FF"/>
</svg>
