<svg width="980" height="720" viewBox="0 0 980 720" fill="none" xmlns="http://www.w3.org/2000/svg">
<path d="M583.5 361.5C583.5 415.086 541.4 458.5 489.5 458.5C437.6 458.5 395.5 415.086 395.5 361.5C395.5 307.914 437.6 264.5 489.5 264.5C541.4 264.5 583.5 307.914 583.5 361.5Z" stroke="#FF55FF"/>
<path d="M705.5 362C705.5 484.896 608.557 584.5 489 584.5C369.443 584.5 272.5 484.896 272.5 362C272.5 239.104 369.443 139.5 489 139.5C608.557 139.5 705.5 239.104 705.5 362Z" stroke="#55FFFF"/>
<path d="M827.5 360C827.5 551.931 675.936 707.5 489 707.5C302.064 707.5 150.5 551.931 150.5 360C150.5 168.069 302.064 12.5 489 12.5C675.936 12.5 827.5 168.069 827.5 360Z" stroke="#5555FF"/>
<rect x="473.5" y="345.5" width="32" height="32" stroke="#FFFF55"/>
<rect x="811.5" y="641.5" width="20" height="20" stroke="#FFFF55"/>
<rect x="567.5" y="218.5" width="32" height="33" stroke="#FFFF55"/>
<rect x="721.5" y="252.5" width="32" height="33" stroke="#FFFF55"/>
<rect x="655.5" y="125.5" width="32" height="32" stroke="#FFFF55"/>
<rect x="770.5" y="75.5" width="31" height="33" stroke="#FFFF55" stroke-dasharray="4 4"/>
<rect x="861.5" y="236.5" width="32" height="33" stroke="#FFFF55" stroke-dasharray="4 4"/>
<rect x="317.5" y="286.5" width="32" height="33" stroke="#FFFF55"/>
<line y1="-0.5" x2="136.331" y2="-0.5" transform="matrix(-0.909913 -0.414799 0.397589 -0.917564 474.141 359.825)" stroke="#FFFF55"/>
<line y1="-0.5" x2="125.194" y2="-0.5" transform="matrix(-0.965448 -0.260595 0.248516 -0.968628 721.18 268.475)" stroke="#FFFF55"/>
<line y1="-0.5" x2="108.49" y2="-0.5" transform="matrix(-0.987055 0.160384 -0.152637 -0.988282 861.133 252.163)" stroke="#FFFF55" stroke-dasharray="4 4"/>
<line x1="655.378" y1="142.328" x2="589.024" y2="218.778" stroke="#FFFF55"/>
<line x1="770.249" y1="92.4338" x2="688.249" y2="139.434" stroke="#FFFF55" stroke-dasharray="4 4"/>
<line y1="-0.5" x2="133.76" y2="-0.5" transform="matrix(0.570709 -0.821152 0.807229 0.590239 505.949 362)" stroke="#FFFF55"/>
<path d="M444.321 218V216.581H446.125V207.836H444.321V206.417H447.533L447.874 209.156C448.321 208.203 448.864 207.466 449.502 206.945C450.14 206.424 450.983 206.164 452.032 206.164C452.355 206.164 452.641 206.19 452.89 206.241C453.147 206.285 453.407 206.344 453.671 206.417L453.407 210.333H451.889V207.869C451.86 207.869 451.827 207.869 451.79 207.869C450.015 207.869 448.743 209.138 447.973 211.675V216.581H450.327V218H444.321ZM458.854 212.863C458.906 214.205 459.258 215.184 459.91 215.8C460.57 216.409 461.348 216.713 462.242 216.713C462.836 216.713 463.372 216.625 463.848 216.449C464.325 216.273 464.82 216.013 465.333 215.668L466.202 216.889C465.667 217.314 465.051 217.648 464.354 217.89C463.658 218.132 462.946 218.253 462.22 218.253C461.091 218.253 460.13 218 459.338 217.494C458.554 216.988 457.952 216.284 457.534 215.382C457.124 214.473 456.918 213.42 456.918 212.225C456.918 211.052 457.124 210.01 457.534 209.101C457.952 208.192 458.539 207.477 459.294 206.956C460.057 206.435 460.952 206.175 461.978 206.175C463.438 206.175 464.585 206.681 465.421 207.693C466.265 208.705 466.686 210.091 466.686 211.851C466.686 212.049 466.679 212.236 466.664 212.412C466.657 212.588 466.65 212.738 466.642 212.863H458.854ZM462 207.693C461.142 207.693 460.424 207.997 459.844 208.606C459.265 209.215 458.939 210.157 458.865 211.433H464.904C464.882 210.194 464.611 209.262 464.09 208.639C463.57 208.008 462.873 207.693 462 207.693ZM478.228 206.175C478.594 206.175 478.95 206.256 479.295 206.417C479.639 206.578 479.922 206.89 480.142 207.352C480.362 207.814 480.472 208.489 480.472 209.376V218H478.756V209.673C478.756 208.947 478.712 208.423 478.624 208.1C478.536 207.777 478.283 207.616 477.865 207.616C477.52 207.616 477.175 207.726 476.831 207.946C476.486 208.159 476.156 208.511 475.841 209.002V218H474.114V209.673C474.114 208.947 474.07 208.423 473.982 208.1C473.894 207.777 473.641 207.616 473.223 207.616C472.863 207.616 472.515 207.726 472.178 207.946C471.84 208.159 471.514 208.511 471.199 209.002V218H469.494V206.417H470.946L471.056 207.759C471.371 207.312 471.723 206.938 472.112 206.637C472.508 206.329 472.995 206.175 473.575 206.175C474.015 206.175 474.429 206.281 474.818 206.494C475.206 206.699 475.492 207.103 475.676 207.704C475.991 207.249 476.347 206.883 476.743 206.604C477.139 206.318 477.634 206.175 478.228 206.175ZM488.196 206.175C489.832 206.175 491.067 206.721 491.903 207.814C492.739 208.907 493.157 210.37 493.157 212.203C493.157 213.384 492.967 214.429 492.585 215.338C492.204 216.247 491.643 216.962 490.902 217.483C490.162 217.996 489.252 218.253 488.174 218.253C486.539 218.253 485.3 217.703 484.456 216.603C483.613 215.503 483.191 214.044 483.191 212.225C483.191 211.037 483.382 209.988 483.763 209.079C484.145 208.162 484.706 207.451 485.446 206.945C486.194 206.432 487.111 206.175 488.196 206.175ZM488.196 207.682C487.199 207.682 486.444 208.052 485.93 208.793C485.424 209.534 485.171 210.678 485.171 212.225C485.171 213.758 485.421 214.894 485.919 215.635C486.425 216.368 487.177 216.735 488.174 216.735C489.172 216.735 489.92 216.365 490.418 215.624C490.924 214.883 491.177 213.743 491.177 212.203C491.177 210.663 490.928 209.526 490.429 208.793C489.931 208.052 489.186 207.682 488.196 207.682ZM506.173 217.417C505.777 217.681 505.296 217.886 504.732 218.033C504.167 218.18 503.613 218.253 503.071 218.253C501.824 218.253 500.863 217.927 500.189 217.274C499.514 216.621 499.177 215.782 499.177 214.755V207.847H496.515V206.417H499.177V203.788L501.025 203.568V206.417H505.029L504.809 207.847H501.025V214.733C501.025 215.378 501.193 215.87 501.531 216.207C501.875 216.544 502.444 216.713 503.236 216.713C503.668 216.713 504.068 216.662 504.435 216.559C504.801 216.456 505.142 216.324 505.458 216.163L506.173 217.417ZM511.62 212.863C511.671 214.205 512.023 215.184 512.676 215.8C513.336 216.409 514.113 216.713 515.008 216.713C515.602 216.713 516.137 216.625 516.614 216.449C517.091 216.273 517.586 216.013 518.099 215.668L518.968 216.889C518.433 217.314 517.817 217.648 517.12 217.89C516.423 218.132 515.712 218.253 514.986 218.253C513.857 218.253 512.896 218 512.104 217.494C511.319 216.988 510.718 216.284 510.3 215.382C509.889 214.473 509.684 213.42 509.684 212.225C509.684 211.052 509.889 210.01 510.3 209.101C510.718 208.192 511.305 207.477 512.06 206.956C512.823 206.435 513.717 206.175 514.744 206.175C516.203 206.175 517.351 206.681 518.187 207.693C519.03 208.705 519.452 210.091 519.452 211.851C519.452 212.049 519.445 212.236 519.43 212.412C519.423 212.588 519.415 212.738 519.408 212.863H511.62ZM514.766 207.693C513.908 207.693 513.189 207.997 512.61 208.606C512.031 209.215 511.704 210.157 511.631 211.433H517.67C517.648 210.194 517.377 209.262 516.856 208.639C516.335 208.008 515.639 207.693 514.766 207.693ZM527.297 216.724C528.192 216.724 528.896 216.559 529.409 216.229C529.923 215.899 530.179 215.452 530.179 214.887C530.179 214.542 530.113 214.242 529.981 213.985C529.857 213.728 529.596 213.497 529.2 213.292C528.804 213.079 528.196 212.87 527.374 212.665C526.575 212.467 525.878 212.24 525.284 211.983C524.698 211.719 524.239 211.378 523.909 210.96C523.587 210.542 523.425 209.999 523.425 209.332C523.425 208.357 523.832 207.587 524.646 207.022C525.46 206.457 526.52 206.175 527.825 206.175C528.757 206.175 529.567 206.3 530.256 206.549C530.953 206.798 531.543 207.099 532.027 207.451L531.213 208.705C530.781 208.404 530.297 208.159 529.761 207.968C529.233 207.77 528.595 207.671 527.847 207.671C526.938 207.671 526.293 207.814 525.911 208.1C525.53 208.379 525.339 208.742 525.339 209.189C525.339 209.534 525.431 209.82 525.614 210.047C525.805 210.267 526.124 210.465 526.571 210.641C527.019 210.817 527.635 211.011 528.419 211.224C529.175 211.429 529.835 211.671 530.399 211.95C530.964 212.229 531.4 212.595 531.708 213.05C532.024 213.497 532.181 214.08 532.181 214.799C532.181 215.62 531.947 216.288 531.477 216.801C531.008 217.307 530.399 217.677 529.651 217.912C528.911 218.139 528.126 218.253 527.297 218.253C526.249 218.253 525.354 218.103 524.613 217.802C523.88 217.494 523.264 217.124 522.765 216.691L523.821 215.47C524.276 215.844 524.797 216.148 525.383 216.383C525.977 216.61 526.615 216.724 527.297 216.724Z" fill="#55FFFF"/>
<path d="M480.847 299.417L476.777 311.077C476.506 311.862 476.161 312.58 475.743 313.233C475.332 313.886 474.793 314.425 474.126 314.85C473.466 315.283 472.626 315.55 471.607 315.653L471.321 314.179C472.12 314.047 472.751 313.845 473.213 313.574C473.675 313.303 474.038 312.954 474.302 312.529C474.573 312.111 474.812 311.601 475.017 311H474.401L470.353 299.417H472.333L475.655 309.592L478.933 299.417H480.847ZM488.813 299.175C490.449 299.175 491.684 299.721 492.52 300.814C493.356 301.907 493.774 303.37 493.774 305.203C493.774 306.384 493.584 307.429 493.202 308.338C492.821 309.247 492.26 309.962 491.519 310.483C490.779 310.996 489.869 311.253 488.791 311.253C487.156 311.253 485.917 310.703 485.073 309.603C484.23 308.503 483.808 307.044 483.808 305.225C483.808 304.037 483.999 302.988 484.38 302.079C484.762 301.162 485.323 300.451 486.063 299.945C486.811 299.432 487.728 299.175 488.813 299.175ZM488.813 300.682C487.816 300.682 487.061 301.052 486.547 301.793C486.041 302.534 485.788 303.678 485.788 305.225C485.788 306.758 486.038 307.894 486.536 308.635C487.042 309.368 487.794 309.735 488.791 309.735C489.789 309.735 490.537 309.365 491.035 308.624C491.541 307.883 491.794 306.743 491.794 305.203C491.794 303.663 491.545 302.526 491.046 301.793C490.548 301.052 489.803 300.682 488.813 300.682ZM499.442 299.417V307.623C499.442 308.386 499.599 308.936 499.915 309.273C500.23 309.61 500.721 309.779 501.389 309.779C502.027 309.779 502.628 309.599 503.193 309.24C503.765 308.873 504.208 308.441 504.524 307.942V299.417H506.372V311H504.799L504.645 309.438C504.19 310.025 503.625 310.476 502.951 310.791C502.283 311.099 501.612 311.253 500.938 311.253C499.816 311.253 498.976 310.956 498.419 310.362C497.869 309.761 497.594 308.921 497.594 307.843V299.417H499.442Z" fill="#FF55FF"/>
<path d="M864.392 647.175C865.419 647.175 866.236 647.424 866.845 647.923C867.461 648.422 867.905 649.126 868.176 650.035C868.447 650.937 868.583 651.993 868.583 653.203C868.583 654.369 868.418 655.41 868.088 656.327C867.765 657.236 867.274 657.951 866.614 658.472C865.954 658.993 865.122 659.253 864.117 659.253C862.848 659.253 861.829 658.806 861.059 657.911V663.433L859.211 663.664V647.417H860.784L860.938 649.034C861.363 648.44 861.869 647.982 862.456 647.659C863.043 647.336 863.688 647.175 864.392 647.175ZM863.952 648.66C863.314 648.66 862.749 648.854 862.258 649.243C861.767 649.624 861.367 650.05 861.059 650.519V656.261C861.36 656.708 861.737 657.064 862.192 657.328C862.654 657.585 863.16 657.713 863.71 657.713C864.671 657.713 865.393 657.346 865.877 656.613C866.361 655.88 866.603 654.739 866.603 653.192C866.603 650.171 865.719 648.66 863.952 648.66ZM873.854 653.863C873.906 655.205 874.258 656.184 874.91 656.8C875.57 657.409 876.348 657.713 877.242 657.713C877.836 657.713 878.372 657.625 878.848 657.449C879.325 657.273 879.82 657.013 880.333 656.668L881.202 657.889C880.667 658.314 880.051 658.648 879.354 658.89C878.658 659.132 877.946 659.253 877.22 659.253C876.091 659.253 875.13 659 874.338 658.494C873.554 657.988 872.952 657.284 872.534 656.382C872.124 655.473 871.918 654.42 871.918 653.225C871.918 652.052 872.124 651.01 872.534 650.101C872.952 649.192 873.539 648.477 874.294 647.956C875.057 647.435 875.952 647.175 876.978 647.175C878.438 647.175 879.585 647.681 880.421 648.693C881.265 649.705 881.686 651.091 881.686 652.851C881.686 653.049 881.679 653.236 881.664 653.412C881.657 653.588 881.65 653.738 881.642 653.863H873.854ZM877 648.693C876.142 648.693 875.424 648.997 874.844 649.606C874.265 650.215 873.939 651.157 873.865 652.433H879.904C879.882 651.194 879.611 650.262 879.09 649.639C878.57 649.008 877.873 648.693 877 648.693ZM887.046 653.863C887.097 655.205 887.449 656.184 888.102 656.8C888.762 657.409 889.539 657.713 890.434 657.713C891.028 657.713 891.563 657.625 892.04 657.449C892.516 657.273 893.011 657.013 893.525 656.668L894.394 657.889C893.858 658.314 893.242 658.648 892.546 658.89C891.849 659.132 891.138 659.253 890.412 659.253C889.282 659.253 888.322 659 887.53 658.494C886.745 657.988 886.144 657.284 885.726 656.382C885.315 655.473 885.11 654.42 885.11 653.225C885.11 652.052 885.315 651.01 885.726 650.101C886.144 649.192 886.73 648.477 887.486 647.956C888.248 647.435 889.143 647.175 890.17 647.175C891.629 647.175 892.777 647.681 893.613 648.693C894.456 649.705 894.878 651.091 894.878 652.851C894.878 653.049 894.87 653.236 894.856 653.412C894.848 653.588 894.841 653.738 894.834 653.863H887.046ZM890.192 648.693C889.334 648.693 888.615 648.997 888.036 649.606C887.456 650.215 887.13 651.157 887.057 652.433H893.096C893.074 651.194 892.802 650.262 892.282 649.639C891.761 649.008 891.064 648.693 890.192 648.693ZM898.895 659V657.581H900.699V648.836H898.895V647.417H902.107L902.448 650.156C902.896 649.203 903.438 648.466 904.076 647.945C904.714 647.424 905.558 647.164 906.606 647.164C906.929 647.164 907.215 647.19 907.464 647.241C907.721 647.285 907.981 647.344 908.245 647.417L907.981 651.333H906.463V648.869C906.434 648.869 906.401 648.869 906.364 648.869C904.59 648.869 903.317 650.138 902.547 652.675V657.581H904.901V659H898.895Z" fill="#FFFF55"/>
<path d="M372.321 91V89.581H374.125V80.836H372.321V79.417H375.533L375.874 82.156C376.321 81.2027 376.864 80.4657 377.502 79.945C378.14 79.4243 378.983 79.164 380.032 79.164C380.355 79.164 380.641 79.1897 380.89 79.241C381.147 79.285 381.407 79.3437 381.671 79.417L381.407 83.333H379.889V80.869C379.86 80.869 379.827 80.869 379.79 80.869C378.015 80.869 376.743 82.1377 375.973 84.675V89.581H378.327V91H372.321ZM386.854 85.863C386.906 87.205 387.258 88.184 387.91 88.8C388.57 89.4087 389.348 89.713 390.242 89.713C390.836 89.713 391.372 89.625 391.848 89.449C392.325 89.273 392.82 89.0127 393.333 88.668L394.202 89.889C393.667 90.3143 393.051 90.648 392.354 90.89C391.658 91.132 390.946 91.253 390.22 91.253C389.091 91.253 388.13 91 387.338 90.494C386.554 89.988 385.952 89.284 385.534 88.382C385.124 87.4727 384.918 86.4203 384.918 85.225C384.918 84.0517 385.124 83.0103 385.534 82.101C385.952 81.1917 386.539 80.4767 387.294 79.956C388.057 79.4353 388.952 79.175 389.978 79.175C391.438 79.175 392.585 79.681 393.421 80.693C394.265 81.705 394.686 83.091 394.686 84.851C394.686 85.049 394.679 85.236 394.664 85.412C394.657 85.588 394.65 85.7383 394.642 85.863H386.854ZM390 80.693C389.142 80.693 388.424 80.9973 387.844 81.606C387.265 82.2147 386.939 83.157 386.865 84.433H392.904C392.882 83.1937 392.611 82.2623 392.09 81.639C391.57 81.0083 390.873 80.693 390 80.693ZM406.228 79.175C406.594 79.175 406.95 79.2557 407.295 79.417C407.639 79.5783 407.922 79.89 408.142 80.352C408.362 80.814 408.472 81.4887 408.472 82.376V91H406.756V82.673C406.756 81.947 406.712 81.4227 406.624 81.1C406.536 80.7773 406.283 80.616 405.865 80.616C405.52 80.616 405.175 80.726 404.831 80.946C404.486 81.1587 404.156 81.5107 403.841 82.002V91H402.114V82.673C402.114 81.947 402.07 81.4227 401.982 81.1C401.894 80.7773 401.641 80.616 401.223 80.616C400.863 80.616 400.515 80.726 400.178 80.946C399.84 81.1587 399.514 81.5107 399.199 82.002V91H397.494V79.417H398.946L399.056 80.759C399.371 80.3117 399.723 79.9377 400.112 79.637C400.508 79.329 400.995 79.175 401.575 79.175C402.015 79.175 402.429 79.2813 402.818 79.494C403.206 79.6993 403.492 80.1027 403.676 80.704C403.991 80.2493 404.347 79.8827 404.743 79.604C405.139 79.318 405.634 79.175 406.228 79.175ZM416.196 79.175C417.832 79.175 419.067 79.7213 419.903 80.814C420.739 81.9067 421.157 83.3697 421.157 85.203C421.157 86.3837 420.967 87.4287 420.585 88.338C420.204 89.2473 419.643 89.9623 418.902 90.483C418.162 90.9963 417.252 91.253 416.174 91.253C414.539 91.253 413.3 90.703 412.456 89.603C411.613 88.503 411.191 87.0437 411.191 85.225C411.191 84.037 411.382 82.9883 411.763 82.079C412.145 81.1623 412.706 80.451 413.446 79.945C414.194 79.4317 415.111 79.175 416.196 79.175ZM416.196 80.682C415.199 80.682 414.444 81.0523 413.93 81.793C413.424 82.5337 413.171 83.6777 413.171 85.225C413.171 86.7577 413.421 87.8943 413.919 88.635C414.425 89.3683 415.177 89.735 416.174 89.735C417.172 89.735 417.92 89.3647 418.418 88.624C418.924 87.8833 419.177 86.743 419.177 85.203C419.177 83.663 418.928 82.5263 418.429 81.793C417.931 81.0523 417.186 80.682 416.196 80.682ZM434.173 90.417C433.777 90.681 433.296 90.8863 432.732 91.033C432.167 91.1797 431.613 91.253 431.071 91.253C429.824 91.253 428.863 90.9267 428.189 90.274C427.514 89.6213 427.177 88.7817 427.177 87.755V80.847H424.515V79.417H427.177V76.788L429.025 76.568V79.417H433.029L432.809 80.847H429.025V87.733C429.025 88.3783 429.193 88.8697 429.531 89.207C429.875 89.5443 430.444 89.713 431.236 89.713C431.668 89.713 432.068 89.6617 432.435 89.559C432.801 89.4563 433.142 89.3243 433.458 89.163L434.173 90.417ZM439.62 85.863C439.671 87.205 440.023 88.184 440.676 88.8C441.336 89.4087 442.113 89.713 443.008 89.713C443.602 89.713 444.137 89.625 444.614 89.449C445.091 89.273 445.586 89.0127 446.099 88.668L446.968 89.889C446.433 90.3143 445.817 90.648 445.12 90.89C444.423 91.132 443.712 91.253 442.986 91.253C441.857 91.253 440.896 91 440.104 90.494C439.319 89.988 438.718 89.284 438.3 88.382C437.889 87.4727 437.684 86.4203 437.684 85.225C437.684 84.0517 437.889 83.0103 438.3 82.101C438.718 81.1917 439.305 80.4767 440.06 79.956C440.823 79.4353 441.717 79.175 442.744 79.175C444.203 79.175 445.351 79.681 446.187 80.693C447.03 81.705 447.452 83.091 447.452 84.851C447.452 85.049 447.445 85.236 447.43 85.412C447.423 85.588 447.415 85.7383 447.408 85.863H439.62ZM442.766 80.693C441.908 80.693 441.189 80.9973 440.61 81.606C440.031 82.2147 439.704 83.157 439.631 84.433H445.67C445.648 83.1937 445.377 82.2623 444.856 81.639C444.335 81.0083 443.639 80.693 442.766 80.693ZM455.297 89.724C456.192 89.724 456.896 89.559 457.409 89.229C457.923 88.899 458.179 88.4517 458.179 87.887C458.179 87.5423 458.113 87.2417 457.981 86.985C457.857 86.7283 457.596 86.4973 457.2 86.292C456.804 86.0793 456.196 85.8703 455.374 85.665C454.575 85.467 453.878 85.2397 453.284 84.983C452.698 84.719 452.239 84.378 451.909 83.96C451.587 83.542 451.425 82.9993 451.425 82.332C451.425 81.3567 451.832 80.5867 452.646 80.022C453.46 79.4573 454.52 79.175 455.825 79.175C456.757 79.175 457.567 79.2997 458.256 79.549C458.953 79.7983 459.543 80.099 460.027 80.451L459.213 81.705C458.781 81.4043 458.297 81.1587 457.761 80.968C457.233 80.77 456.595 80.671 455.847 80.671C454.938 80.671 454.293 80.814 453.911 81.1C453.53 81.3787 453.339 81.7417 453.339 82.189C453.339 82.5337 453.431 82.8197 453.614 83.047C453.805 83.267 454.124 83.465 454.571 83.641C455.019 83.817 455.635 84.0113 456.419 84.224C457.175 84.4293 457.835 84.6713 458.399 84.95C458.964 85.2287 459.4 85.5953 459.708 86.05C460.024 86.4973 460.181 87.0803 460.181 87.799C460.181 88.6203 459.947 89.2877 459.477 89.801C459.008 90.307 458.399 90.6773 457.651 90.912C456.911 91.1393 456.126 91.253 455.297 91.253C454.249 91.253 453.354 91.1027 452.613 90.802C451.88 90.494 451.264 90.1237 450.765 89.691L451.821 88.47C452.276 88.844 452.797 89.1483 453.383 89.383C453.977 89.6103 454.615 89.724 455.297 89.724ZM482.153 79.175C483.789 79.175 485.024 79.7213 485.86 80.814C486.696 81.9067 487.114 83.3697 487.114 85.203C487.114 86.3837 486.924 87.4287 486.542 88.338C486.161 89.2473 485.6 89.9623 484.859 90.483C484.119 90.9963 483.209 91.253 482.131 91.253C480.496 91.253 479.257 90.703 478.413 89.603C477.57 88.503 477.148 87.0437 477.148 85.225C477.148 84.037 477.339 82.9883 477.72 82.079C478.102 81.1623 478.663 80.451 479.403 79.945C480.151 79.4317 481.068 79.175 482.153 79.175ZM482.153 80.682C481.156 80.682 480.401 81.0523 479.887 81.793C479.381 82.5337 479.128 83.6777 479.128 85.225C479.128 86.7577 479.378 87.8943 479.876 88.635C480.382 89.3683 481.134 89.735 482.131 89.735C483.129 89.735 483.877 89.3647 484.375 88.624C484.881 87.8833 485.134 86.743 485.134 85.203C485.134 83.663 484.885 82.5263 484.386 81.793C483.888 81.0523 483.143 80.682 482.153 80.682ZM497.776 74.522C498.399 74.522 498.964 74.577 499.47 74.687C499.976 74.797 500.456 74.951 500.911 75.149L500.317 76.524C499.943 76.3627 499.543 76.2417 499.118 76.161C498.7 76.0803 498.271 76.04 497.831 76.04C496.21 76.04 495.4 76.6817 495.4 77.965V80.319H499.327L499.129 81.771H495.4V91H493.552V81.771H490.791V80.319H493.552V78.009C493.552 77.2903 493.735 76.6707 494.102 76.15C494.476 75.6293 494.982 75.2297 495.62 74.951C496.258 74.665 496.976 74.522 497.776 74.522ZM517.426 91V89.581H519.23V80.836H517.426V79.417H520.638L520.979 82.156C521.427 81.2027 521.969 80.4657 522.607 79.945C523.245 79.4243 524.089 79.164 525.137 79.164C525.46 79.164 525.746 79.1897 525.995 79.241C526.252 79.285 526.512 79.3437 526.776 79.417L526.512 83.333H524.994V80.869C524.965 80.869 524.932 80.869 524.895 80.869C523.121 80.869 521.848 82.1377 521.078 84.675V89.581H523.432V91H517.426ZM531.96 85.863C532.011 87.205 532.363 88.184 533.016 88.8C533.676 89.4087 534.453 89.713 535.348 89.713C535.942 89.713 536.477 89.625 536.954 89.449C537.431 89.273 537.926 89.0127 538.439 88.668L539.308 89.889C538.773 90.3143 538.157 90.648 537.46 90.89C536.763 91.132 536.052 91.253 535.326 91.253C534.197 91.253 533.236 91 532.444 90.494C531.659 89.988 531.058 89.284 530.64 88.382C530.229 87.4727 530.024 86.4203 530.024 85.225C530.024 84.0517 530.229 83.0103 530.64 82.101C531.058 81.1917 531.645 80.4767 532.4 79.956C533.163 79.4353 534.057 79.175 535.084 79.175C536.543 79.175 537.691 79.681 538.527 80.693C539.37 81.705 539.792 83.091 539.792 84.851C539.792 85.049 539.785 85.236 539.77 85.412C539.763 85.588 539.755 85.7383 539.748 85.863H531.96ZM535.106 80.693C534.248 80.693 533.529 80.9973 532.95 81.606C532.371 82.2147 532.044 83.157 531.971 84.433H538.01C537.988 83.1937 537.717 82.2623 537.196 81.639C536.675 81.0083 535.979 80.693 535.106 80.693ZM551.333 79.175C551.7 79.175 552.056 79.2557 552.4 79.417C552.745 79.5783 553.027 79.89 553.247 80.352C553.467 80.814 553.577 81.4887 553.577 82.376V91H551.861V82.673C551.861 81.947 551.817 81.4227 551.729 81.1C551.641 80.7773 551.388 80.616 550.97 80.616C550.626 80.616 550.281 80.726 549.936 80.946C549.592 81.1587 549.262 81.5107 548.946 82.002V91H547.219V82.673C547.219 81.947 547.175 81.4227 547.087 81.1C546.999 80.7773 546.746 80.616 546.328 80.616C545.969 80.616 545.621 80.726 545.283 80.946C544.946 81.1587 544.62 81.5107 544.304 82.002V91H542.599V79.417H544.051L544.161 80.759C544.477 80.3117 544.829 79.9377 545.217 79.637C545.613 79.329 546.101 79.175 546.68 79.175C547.12 79.175 547.535 79.2813 547.923 79.494C548.312 79.6993 548.598 80.1027 548.781 80.704C549.097 80.2493 549.452 79.8827 549.848 79.604C550.244 79.318 550.739 79.175 551.333 79.175ZM561.302 79.175C562.937 79.175 564.173 79.7213 565.009 80.814C565.845 81.9067 566.263 83.3697 566.263 85.203C566.263 86.3837 566.072 87.4287 565.691 88.338C565.309 89.2473 564.748 89.9623 564.008 90.483C563.267 90.9963 562.358 91.253 561.28 91.253C559.644 91.253 558.405 90.703 557.562 89.603C556.718 88.503 556.297 87.0437 556.297 85.225C556.297 84.037 556.487 82.9883 556.869 82.079C557.25 81.1623 557.811 80.451 558.552 79.945C559.3 79.4317 560.216 79.175 561.302 79.175ZM561.302 80.682C560.304 80.682 559.549 81.0523 559.036 81.793C558.53 82.5337 558.277 83.6777 558.277 85.225C558.277 86.7577 558.526 87.8943 559.025 88.635C559.531 89.3683 560.282 89.735 561.28 89.735C562.277 89.735 563.025 89.3647 563.524 88.624C564.03 87.8833 564.283 86.743 564.283 85.203C564.283 83.663 564.033 82.5263 563.535 81.793C563.036 81.0523 562.292 80.682 561.302 80.682ZM579.278 90.417C578.882 90.681 578.402 90.8863 577.837 91.033C577.272 91.1797 576.719 91.253 576.176 91.253C574.929 91.253 573.969 90.9267 573.294 90.274C572.619 89.6213 572.282 88.7817 572.282 87.755V80.847H569.62V79.417H572.282V76.788L574.13 76.568V79.417H578.134L577.914 80.847H574.13V87.733C574.13 88.3783 574.299 88.8697 574.636 89.207C574.981 89.5443 575.549 89.713 576.341 89.713C576.774 89.713 577.173 89.6617 577.54 89.559C577.907 89.4563 578.248 89.3243 578.563 89.163L579.278 90.417ZM584.726 85.863C584.777 87.205 585.129 88.184 585.782 88.8C586.442 89.4087 587.219 89.713 588.114 89.713C588.708 89.713 589.243 89.625 589.72 89.449C590.196 89.273 590.691 89.0127 591.205 88.668L592.074 89.889C591.538 90.3143 590.922 90.648 590.226 90.89C589.529 91.132 588.818 91.253 588.092 91.253C586.962 91.253 586.002 91 585.21 90.494C584.425 89.988 583.824 89.284 583.406 88.382C582.995 87.4727 582.79 86.4203 582.79 85.225C582.79 84.0517 582.995 83.0103 583.406 82.101C583.824 81.1917 584.41 80.4767 585.166 79.956C585.928 79.4353 586.823 79.175 587.85 79.175C589.309 79.175 590.457 79.681 591.293 80.693C592.136 81.705 592.558 83.091 592.558 84.851C592.558 85.049 592.55 85.236 592.536 85.412C592.528 85.588 592.521 85.7383 592.514 85.863H584.726ZM587.872 80.693C587.014 80.693 586.295 80.9973 585.716 81.606C585.136 82.2147 584.81 83.157 584.737 84.433H590.776C590.754 83.1937 590.482 82.2623 589.962 81.639C589.441 81.0083 588.744 80.693 587.872 80.693ZM600.403 89.724C601.298 89.724 602.002 89.559 602.515 89.229C603.028 88.899 603.285 88.4517 603.285 87.887C603.285 87.5423 603.219 87.2417 603.087 86.985C602.962 86.7283 602.702 86.4973 602.306 86.292C601.91 86.0793 601.301 85.8703 600.48 85.665C599.681 85.467 598.984 85.2397 598.39 84.983C597.803 84.719 597.345 84.378 597.015 83.96C596.692 83.542 596.531 82.9993 596.531 82.332C596.531 81.3567 596.938 80.5867 597.752 80.022C598.566 79.4573 599.626 79.175 600.931 79.175C601.862 79.175 602.673 79.2997 603.362 79.549C604.059 79.7983 604.649 80.099 605.133 80.451L604.319 81.705C603.886 81.4043 603.402 81.1587 602.867 80.968C602.339 80.77 601.701 80.671 600.953 80.671C600.044 80.671 599.398 80.814 599.017 81.1C598.636 81.3787 598.445 81.7417 598.445 82.189C598.445 82.5337 598.537 82.8197 598.72 83.047C598.911 83.267 599.23 83.465 599.677 83.641C600.124 83.817 600.74 84.0113 601.525 84.224C602.28 84.4293 602.94 84.6713 603.505 84.95C604.07 85.2287 604.506 85.5953 604.814 86.05C605.129 86.4973 605.287 87.0803 605.287 87.799C605.287 88.6203 605.052 89.2877 604.583 89.801C604.114 90.307 603.505 90.6773 602.757 90.912C602.016 91.1393 601.232 91.253 600.403 91.253C599.354 91.253 598.46 91.1027 597.719 90.802C596.986 90.494 596.37 90.1237 595.871 89.691L596.927 88.47C597.382 88.844 597.902 89.1483 598.489 89.383C599.083 89.6103 599.721 89.724 600.403 89.724Z" fill="#5555FF"/>
</svg>
