<svg width="980" height="604" viewBox="0 0 980 604" fill="none" xmlns="http://www.w3.org/2000/svg">
<rect width="741" height="178" rx="4" transform="matrix(1 0 0 -1 122 383)" stroke="#FF55FF" stroke-width="2" stroke-dasharray="2 2"/>
<rect x="87.5" y="87.5" width="804" height="428" rx="3.5" stroke="#55FFFF"/>
<path d="M345.859 457.782C345.859 458.339 346.152 458.794 346.739 459.146C347.34 459.498 348.213 459.674 349.357 459.674C349.973 459.674 350.53 459.608 351.029 459.476C351.528 459.359 351.953 459.197 352.305 458.992C352.657 458.787 352.921 458.552 353.097 458.288C353.288 458.024 353.383 457.753 353.383 457.474C353.383 456.961 353.178 456.616 352.767 456.44C352.371 456.264 351.762 456.176 350.941 456.176H348.851C348.543 456.176 348.25 456.161 347.971 456.132C347.707 456.117 347.458 456.073 347.223 456C346.71 456.279 346.35 456.565 346.145 456.858C345.954 457.166 345.859 457.474 345.859 457.782ZM344.297 457.958C344.297 457.533 344.444 457.115 344.737 456.704C345.045 456.293 345.485 455.919 346.057 455.582V455.494C345.764 455.333 345.507 455.113 345.287 454.834C345.067 454.555 344.957 454.189 344.957 453.734C344.957 453.397 345.067 453.052 345.287 452.7C345.507 452.333 345.822 452.011 346.233 451.732V451.644C345.866 451.365 345.551 450.999 345.287 450.544C345.038 450.075 344.913 449.517 344.913 448.872C344.913 448.285 345.023 447.757 345.243 447.288C345.478 446.819 345.786 446.423 346.167 446.1C346.548 445.763 346.988 445.506 347.487 445.33C348 445.139 348.543 445.044 349.115 445.044C349.702 445.044 350.23 445.132 350.699 445.308H355.121V446.694H352.261C352.51 446.958 352.738 447.281 352.943 447.662C353.148 448.043 353.251 448.469 353.251 448.938C353.251 449.51 353.141 450.023 352.921 450.478C352.716 450.933 352.422 451.321 352.041 451.644C351.674 451.952 351.234 452.194 350.721 452.37C350.222 452.531 349.687 452.612 349.115 452.612C348.836 452.612 348.536 452.583 348.213 452.524C347.905 452.451 347.604 452.348 347.311 452.216C346.754 452.568 346.475 452.979 346.475 453.448C346.475 453.873 346.666 454.189 347.047 454.394C347.443 454.585 347.993 454.68 348.697 454.68H351.095C352.474 454.68 353.493 454.871 354.153 455.252C354.828 455.633 355.165 456.279 355.165 457.188C355.165 457.687 355.026 458.163 354.747 458.618C354.468 459.073 354.072 459.469 353.559 459.806C353.046 460.143 352.422 460.415 351.689 460.62C350.956 460.825 350.134 460.928 349.225 460.928C347.656 460.928 346.438 460.671 345.573 460.158C344.722 459.645 344.297 458.911 344.297 457.958ZM349.115 451.402C349.804 451.402 350.384 451.175 350.853 450.72C351.337 450.265 351.579 449.649 351.579 448.872C351.579 448.505 351.513 448.168 351.381 447.86C351.249 447.552 351.073 447.288 350.853 447.068C350.633 446.848 350.369 446.679 350.061 446.562C349.768 446.43 349.452 446.364 349.115 446.364C348.778 446.364 348.455 446.43 348.147 446.562C347.854 446.679 347.597 446.848 347.377 447.068C347.157 447.288 346.981 447.552 346.849 447.86C346.717 448.168 346.651 448.505 346.651 448.872C346.651 449.649 346.893 450.265 347.377 450.72C347.861 451.175 348.44 451.402 349.115 451.402ZM357.884 445.308H364.66V456H362.856V446.782H357.884V445.308ZM363.56 443.108C363.135 443.108 362.783 442.983 362.504 442.734C362.24 442.485 362.108 442.147 362.108 441.722C362.108 441.297 362.24 440.959 362.504 440.71C362.783 440.446 363.135 440.314 363.56 440.314C363.971 440.314 364.316 440.446 364.594 440.71C364.873 440.959 365.012 441.297 365.012 441.722C365.012 442.147 364.873 442.485 364.594 442.734C364.316 442.983 363.971 443.108 363.56 443.108ZM373.628 446.782H370.614V445.418L373.694 445.308L373.936 442.316H375.432V445.308H380.69V446.782H375.432V451.864C375.432 452.348 375.476 452.773 375.564 453.14C375.652 453.492 375.798 453.793 376.004 454.042C376.209 454.291 376.488 454.482 376.84 454.614C377.192 454.731 377.624 454.79 378.138 454.79C378.651 454.79 379.113 454.746 379.524 454.658C379.934 454.57 380.33 454.453 380.712 454.306L381.108 455.626C380.624 455.802 380.088 455.949 379.502 456.066C378.915 456.198 378.328 456.264 377.742 456.264C376.964 456.264 376.312 456.161 375.784 455.956C375.256 455.736 374.83 455.435 374.508 455.054C374.2 454.658 373.972 454.189 373.826 453.646C373.694 453.103 373.628 452.502 373.628 451.842V446.782Z" fill="#FFFF55"/>
<rect x="122.5" y="403.5" width="523" height="91" rx="3.5" stroke="#FFFF55"/>
<path d="M751.389 443.108H746.637V441.568H757.989V443.108H753.237V456H751.389V443.108ZM760.642 441.568H762.49V450.588C762.49 451.336 762.564 451.974 762.71 452.502C762.872 453.015 763.084 453.433 763.348 453.756C763.627 454.064 763.95 454.291 764.316 454.438C764.683 454.585 765.086 454.658 765.526 454.658C765.966 454.658 766.37 454.585 766.736 454.438C767.103 454.291 767.426 454.064 767.704 453.756C767.983 453.433 768.196 453.015 768.342 452.502C768.504 451.974 768.584 451.336 768.584 450.588V441.568H770.366V450.544C770.366 451.585 770.242 452.465 769.992 453.184C769.758 453.903 769.428 454.497 769.002 454.966C768.577 455.421 768.064 455.751 767.462 455.956C766.876 456.161 766.23 456.264 765.526 456.264C764.822 456.264 764.17 456.161 763.568 455.956C762.967 455.751 762.446 455.421 762.006 454.966C761.581 454.497 761.244 453.903 760.994 453.184C760.76 452.465 760.642 451.585 760.642 450.544V441.568ZM775.066 441.568H783.888V443.108H776.892V447.992H782.81V449.532H776.892V456H775.066V441.568Z" fill="#55FF55"/>
<rect x="669.5" y="403.5" width="193" height="91" rx="3.5" stroke="#55FF55"/>
<path d="M450.18 252.902V256.51H448.376V241.308H449.872L450.026 242.672H450.092C450.591 242.203 451.163 241.814 451.808 241.506C452.468 241.198 453.128 241.044 453.788 241.044C454.507 241.044 455.137 241.176 455.68 241.44C456.237 241.689 456.699 242.056 457.066 242.54C457.447 243.009 457.733 243.581 457.924 244.256C458.115 244.916 458.21 245.664 458.21 246.5C458.21 247.409 458.078 248.223 457.814 248.942C457.55 249.646 457.191 250.247 456.736 250.746C456.296 251.245 455.783 251.626 455.196 251.89C454.609 252.139 453.993 252.264 453.348 252.264C452.849 252.264 452.307 252.147 451.72 251.912C451.148 251.663 450.62 251.318 450.136 250.878L450.18 252.902ZM450.18 249.492C450.693 249.947 451.207 250.269 451.72 250.46C452.233 250.651 452.673 250.746 453.04 250.746C454.008 250.746 454.8 250.372 455.416 249.624C456.032 248.876 456.34 247.835 456.34 246.5C456.34 245.913 456.281 245.378 456.164 244.894C456.047 244.41 455.863 243.999 455.614 243.662C455.379 243.31 455.071 243.039 454.69 242.848C454.309 242.657 453.854 242.562 453.326 242.562C452.857 242.562 452.351 242.694 451.808 242.958C451.28 243.207 450.737 243.611 450.18 244.168V249.492ZM462.733 241.308H464.229L464.383 243.838H464.449C465.007 242.973 465.689 242.291 466.495 241.792C467.317 241.293 468.226 241.044 469.223 241.044C469.619 241.044 469.986 241.081 470.323 241.154C470.661 241.213 470.998 241.323 471.335 241.484L470.917 243.046C470.536 242.914 470.213 242.819 469.949 242.76C469.7 242.701 469.363 242.672 468.937 242.672C468.131 242.672 467.353 242.907 466.605 243.376C465.872 243.831 465.183 244.615 464.537 245.73V252H462.733V241.308ZM474.033 246.676C474.033 245.781 474.172 244.989 474.451 244.3C474.744 243.596 475.133 243.002 475.617 242.518C476.101 242.034 476.658 241.667 477.289 241.418C477.934 241.169 478.609 241.044 479.313 241.044C480.017 241.044 480.684 241.169 481.315 241.418C481.96 241.667 482.525 242.034 483.009 242.518C483.493 243.002 483.874 243.596 484.153 244.3C484.446 244.989 484.593 245.781 484.593 246.676C484.593 247.556 484.446 248.348 484.153 249.052C483.874 249.741 483.493 250.328 483.009 250.812C482.525 251.281 481.96 251.641 481.315 251.89C480.684 252.139 480.017 252.264 479.313 252.264C478.609 252.264 477.934 252.139 477.289 251.89C476.658 251.641 476.101 251.281 475.617 250.812C475.133 250.328 474.744 249.741 474.451 249.052C474.172 248.348 474.033 247.556 474.033 246.676ZM475.903 246.676C475.903 247.292 475.984 247.849 476.145 248.348C476.306 248.847 476.534 249.279 476.827 249.646C477.135 249.998 477.494 250.277 477.905 250.482C478.33 250.673 478.8 250.768 479.313 250.768C479.826 250.768 480.288 250.673 480.699 250.482C481.124 250.277 481.484 249.998 481.777 249.646C482.085 249.279 482.32 248.847 482.481 248.348C482.642 247.849 482.723 247.292 482.723 246.676C482.723 246.06 482.642 245.503 482.481 245.004C482.32 244.491 482.085 244.051 481.777 243.684C481.484 243.317 481.124 243.039 480.699 242.848C480.288 242.643 479.826 242.54 479.313 242.54C478.8 242.54 478.33 242.643 477.905 242.848C477.494 243.039 477.135 243.317 476.827 243.684C476.534 244.051 476.306 244.491 476.145 245.004C475.984 245.503 475.903 246.06 475.903 246.676ZM487.884 241.308H494.66V252.264C494.66 252.924 494.587 253.525 494.44 254.068C494.294 254.625 494.044 255.102 493.692 255.498C493.355 255.909 492.9 256.224 492.328 256.444C491.756 256.664 491.038 256.774 490.172 256.774C489.615 256.774 489.072 256.701 488.544 256.554C488.016 256.422 487.54 256.253 487.114 256.048L487.708 254.706C488.09 254.897 488.486 255.043 488.896 255.146C489.322 255.249 489.74 255.3 490.15 255.3C490.678 255.3 491.118 255.234 491.47 255.102C491.822 254.97 492.101 254.779 492.306 254.53C492.512 254.281 492.651 253.973 492.724 253.606C492.812 253.254 492.856 252.851 492.856 252.396V242.782H487.884V241.308ZM493.56 239.108C493.135 239.108 492.783 238.983 492.504 238.734C492.24 238.485 492.108 238.147 492.108 237.722C492.108 237.297 492.24 236.959 492.504 236.71C492.783 236.446 493.135 236.314 493.56 236.314C493.971 236.314 494.316 236.446 494.594 236.71C494.873 236.959 495.012 237.297 495.012 237.722C495.012 238.147 494.873 238.485 494.594 238.734C494.316 238.983 493.971 239.108 493.56 239.108ZM500.614 246.676C500.614 245.796 500.768 245.011 501.076 244.322C501.384 243.618 501.787 243.024 502.286 242.54C502.799 242.056 503.378 241.689 504.024 241.44C504.684 241.176 505.358 241.044 506.048 241.044C506.81 241.044 507.492 241.169 508.094 241.418C508.695 241.653 509.201 241.99 509.612 242.43C510.037 242.87 510.36 243.398 510.58 244.014C510.8 244.63 510.91 245.312 510.91 246.06C510.91 246.251 510.902 246.441 510.888 246.632C510.888 246.808 510.873 246.962 510.844 247.094H502.484C502.498 247.666 502.608 248.179 502.814 248.634C503.034 249.089 503.32 249.477 503.672 249.8C504.038 250.123 504.464 250.372 504.948 250.548C505.446 250.724 505.989 250.812 506.576 250.812C507.206 250.812 507.778 250.724 508.292 250.548C508.82 250.372 509.333 250.13 509.832 249.822L510.47 251.01C509.942 251.347 509.34 251.641 508.666 251.89C507.991 252.139 507.221 252.264 506.356 252.264C505.564 252.264 504.816 252.139 504.112 251.89C503.422 251.626 502.814 251.259 502.286 250.79C501.772 250.306 501.362 249.719 501.054 249.03C500.76 248.341 500.614 247.556 500.614 246.676ZM509.238 245.796C509.238 244.725 508.959 243.904 508.402 243.332C507.844 242.76 507.067 242.474 506.07 242.474C505.63 242.474 505.204 242.547 504.794 242.694C504.398 242.841 504.038 243.061 503.716 243.354C503.393 243.633 503.122 243.977 502.902 244.388C502.682 244.799 502.535 245.268 502.462 245.796H509.238ZM514.047 246.676C514.047 245.781 514.201 244.989 514.509 244.3C514.832 243.596 515.264 243.002 515.807 242.518C516.35 242.034 516.98 241.667 517.699 241.418C518.432 241.169 519.202 241.044 520.009 241.044C520.889 241.044 521.644 241.198 522.275 241.506C522.92 241.814 523.463 242.181 523.903 242.606L523.001 243.772C522.561 243.391 522.099 243.09 521.615 242.87C521.146 242.65 520.632 242.54 520.075 242.54C519.459 242.54 518.894 242.643 518.381 242.848C517.868 243.039 517.428 243.317 517.061 243.684C516.709 244.051 516.43 244.491 516.225 245.004C516.02 245.503 515.917 246.06 515.917 246.676C515.917 247.292 516.012 247.849 516.203 248.348C516.408 248.847 516.687 249.279 517.039 249.646C517.406 249.998 517.838 250.277 518.337 250.482C518.85 250.673 519.415 250.768 520.031 250.768C520.691 250.768 521.292 250.643 521.835 250.394C522.392 250.13 522.898 249.807 523.353 249.426L524.145 250.592C523.558 251.12 522.898 251.531 522.165 251.824C521.446 252.117 520.691 252.264 519.899 252.264C519.063 252.264 518.286 252.139 517.567 251.89C516.863 251.641 516.247 251.281 515.719 250.812C515.191 250.328 514.78 249.741 514.487 249.052C514.194 248.348 514.047 247.556 514.047 246.676ZM530.011 242.782H526.997V241.418L530.077 241.308L530.319 238.316H531.815V241.308H537.073V242.782H531.815V247.864C531.815 248.348 531.859 248.773 531.947 249.14C532.035 249.492 532.181 249.793 532.387 250.042C532.592 250.291 532.871 250.482 533.223 250.614C533.575 250.731 534.007 250.79 534.521 250.79C535.034 250.79 535.496 250.746 535.907 250.658C536.317 250.57 536.713 250.453 537.095 250.306L537.491 251.626C537.007 251.802 536.471 251.949 535.885 252.066C535.298 252.198 534.711 252.264 534.125 252.264C533.347 252.264 532.695 252.161 532.167 251.956C531.639 251.736 531.213 251.435 530.891 251.054C530.583 250.658 530.355 250.189 530.209 249.646C530.077 249.103 530.011 248.502 530.011 247.842V242.782Z" fill="#FF55FF"/>
<path d="M223.89 324.404C224.491 324.844 225.136 325.196 225.826 325.46C226.515 325.724 227.344 325.856 228.312 325.856C229.28 325.856 229.998 325.695 230.468 325.372C230.937 325.049 231.172 324.653 231.172 324.184C231.172 323.773 230.915 323.407 230.402 323.084C229.903 322.761 229.001 322.439 227.696 322.116C227.138 321.984 226.61 321.823 226.112 321.632C225.628 321.441 225.202 321.221 224.836 320.972C224.469 320.708 224.176 320.422 223.956 320.114C223.736 319.806 223.626 319.461 223.626 319.08C223.626 318.655 223.721 318.259 223.912 317.892C224.102 317.511 224.381 317.188 224.748 316.924C225.129 316.645 225.598 316.433 226.156 316.286C226.728 316.125 227.38 316.044 228.114 316.044C228.92 316.044 229.705 316.183 230.468 316.462C231.23 316.726 231.876 317.041 232.404 317.408L231.524 318.574C231.054 318.237 230.534 317.965 229.962 317.76C229.39 317.555 228.774 317.452 228.114 317.452C227.615 317.452 227.197 317.496 226.86 317.584C226.522 317.657 226.251 317.767 226.046 317.914C225.84 318.046 225.694 318.207 225.606 318.398C225.518 318.589 225.474 318.787 225.474 318.992C225.474 319.432 225.774 319.799 226.376 320.092C226.977 320.371 227.762 320.635 228.73 320.884C230.182 321.251 231.252 321.669 231.942 322.138C232.646 322.607 232.998 323.253 232.998 324.074C232.998 324.514 232.895 324.925 232.69 325.306C232.484 325.687 232.176 326.025 231.766 326.318C231.37 326.611 230.871 326.839 230.27 327C229.683 327.176 229.008 327.264 228.246 327.264C227.19 327.264 226.214 327.103 225.32 326.78C224.44 326.443 223.67 326.047 223.01 325.592L223.89 324.404ZM235.937 321.676C235.937 320.781 236.077 319.989 236.355 319.3C236.649 318.596 237.037 318.002 237.521 317.518C238.005 317.034 238.563 316.667 239.193 316.418C239.839 316.169 240.513 316.044 241.217 316.044C241.921 316.044 242.589 316.169 243.219 316.418C243.865 316.667 244.429 317.034 244.913 317.518C245.397 318.002 245.779 318.596 246.057 319.3C246.351 319.989 246.497 320.781 246.497 321.676C246.497 322.556 246.351 323.348 246.057 324.052C245.779 324.741 245.397 325.328 244.913 325.812C244.429 326.281 243.865 326.641 243.219 326.89C242.589 327.139 241.921 327.264 241.217 327.264C240.513 327.264 239.839 327.139 239.193 326.89C238.563 326.641 238.005 326.281 237.521 325.812C237.037 325.328 236.649 324.741 236.355 324.052C236.077 323.348 235.937 322.556 235.937 321.676ZM237.807 321.676C237.807 322.292 237.888 322.849 238.049 323.348C238.211 323.847 238.438 324.279 238.731 324.646C239.039 324.998 239.399 325.277 239.809 325.482C240.235 325.673 240.704 325.768 241.217 325.768C241.731 325.768 242.193 325.673 242.603 325.482C243.029 325.277 243.388 324.998 243.681 324.646C243.989 324.279 244.224 323.847 244.385 323.348C244.547 322.849 244.627 322.292 244.627 321.676C244.627 321.06 244.547 320.503 244.385 320.004C244.224 319.491 243.989 319.051 243.681 318.684C243.388 318.317 243.029 318.039 242.603 317.848C242.193 317.643 241.731 317.54 241.217 317.54C240.704 317.54 240.235 317.643 239.809 317.848C239.399 318.039 239.039 318.317 238.731 318.684C238.438 319.051 238.211 319.491 238.049 320.004C237.888 320.503 237.807 321.06 237.807 321.676ZM258.919 327H257.445L257.291 325.13H257.203C256.66 325.761 256.066 326.274 255.421 326.67C254.79 327.066 254.057 327.264 253.221 327.264C251.93 327.264 250.984 326.905 250.383 326.186C249.796 325.453 249.503 324.375 249.503 322.952V316.308H251.329V322.71C251.329 323.722 251.512 324.477 251.879 324.976C252.26 325.46 252.898 325.702 253.793 325.702C254.409 325.702 254.966 325.548 255.465 325.24C255.963 324.917 256.513 324.411 257.115 323.722V316.308H258.919V327ZM264.212 316.308H265.708L265.862 318.838H265.928C266.485 317.973 267.167 317.291 267.974 316.792C268.795 316.293 269.705 316.044 270.702 316.044C271.098 316.044 271.465 316.081 271.802 316.154C272.139 316.213 272.477 316.323 272.814 316.484L272.396 318.046C272.015 317.914 271.692 317.819 271.428 317.76C271.179 317.701 270.841 317.672 270.416 317.672C269.609 317.672 268.832 317.907 268.084 318.376C267.351 318.831 266.661 319.615 266.016 320.73V327H264.212V316.308ZM275.951 321.676C275.951 320.781 276.105 319.989 276.413 319.3C276.736 318.596 277.169 318.002 277.711 317.518C278.254 317.034 278.885 316.667 279.603 316.418C280.337 316.169 281.107 316.044 281.913 316.044C282.793 316.044 283.549 316.198 284.179 316.506C284.825 316.814 285.367 317.181 285.807 317.606L284.905 318.772C284.465 318.391 284.003 318.09 283.519 317.87C283.05 317.65 282.537 317.54 281.979 317.54C281.363 317.54 280.799 317.643 280.285 317.848C279.772 318.039 279.332 318.317 278.965 318.684C278.613 319.051 278.335 319.491 278.129 320.004C277.924 320.503 277.821 321.06 277.821 321.676C277.821 322.292 277.917 322.849 278.107 323.348C278.313 323.847 278.591 324.279 278.943 324.646C279.31 324.998 279.743 325.277 280.241 325.482C280.755 325.673 281.319 325.768 281.935 325.768C282.595 325.768 283.197 325.643 283.739 325.394C284.297 325.13 284.803 324.807 285.257 324.426L286.049 325.592C285.463 326.12 284.803 326.531 284.069 326.824C283.351 327.117 282.595 327.264 281.803 327.264C280.967 327.264 280.19 327.139 279.471 326.89C278.767 326.641 278.151 326.281 277.623 325.812C277.095 325.328 276.685 324.741 276.391 324.052C276.098 323.348 275.951 322.556 275.951 321.676ZM288.901 321.676C288.901 320.796 289.055 320.011 289.363 319.322C289.671 318.618 290.074 318.024 290.573 317.54C291.086 317.056 291.665 316.689 292.311 316.44C292.971 316.176 293.645 316.044 294.335 316.044C295.097 316.044 295.779 316.169 296.381 316.418C296.982 316.653 297.488 316.99 297.899 317.43C298.324 317.87 298.647 318.398 298.867 319.014C299.087 319.63 299.197 320.312 299.197 321.06C299.197 321.251 299.189 321.441 299.175 321.632C299.175 321.808 299.16 321.962 299.131 322.094H290.771C290.785 322.666 290.895 323.179 291.101 323.634C291.321 324.089 291.607 324.477 291.959 324.8C292.325 325.123 292.751 325.372 293.235 325.548C293.733 325.724 294.276 325.812 294.863 325.812C295.493 325.812 296.065 325.724 296.579 325.548C297.107 325.372 297.62 325.13 298.119 324.822L298.757 326.01C298.229 326.347 297.627 326.641 296.953 326.89C296.278 327.139 295.508 327.264 294.643 327.264C293.851 327.264 293.103 327.139 292.399 326.89C291.709 326.626 291.101 326.259 290.573 325.79C290.059 325.306 289.649 324.719 289.341 324.03C289.047 323.341 288.901 322.556 288.901 321.676ZM297.525 320.796C297.525 319.725 297.246 318.904 296.689 318.332C296.131 317.76 295.354 317.474 294.357 317.474C293.917 317.474 293.491 317.547 293.081 317.694C292.685 317.841 292.325 318.061 292.003 318.354C291.68 318.633 291.409 318.977 291.189 319.388C290.969 319.799 290.822 320.268 290.749 320.796H297.525Z" fill="#FF55FF"/>
<path d="M453.906 316.308H460.682V327H458.878V317.782H453.906V316.308ZM459.582 314.108C459.156 314.108 458.804 313.983 458.526 313.734C458.262 313.485 458.13 313.147 458.13 312.722C458.13 312.297 458.262 311.959 458.526 311.71C458.804 311.446 459.156 311.314 459.582 311.314C459.992 311.314 460.337 311.446 460.616 311.71C460.894 311.959 461.034 312.297 461.034 312.722C461.034 313.147 460.894 313.485 460.616 313.734C460.337 313.983 459.992 314.108 459.582 314.108ZM467.581 324.404C468.183 324.844 468.828 325.196 469.517 325.46C470.207 325.724 471.035 325.856 472.003 325.856C472.971 325.856 473.69 325.695 474.159 325.372C474.629 325.049 474.863 324.653 474.863 324.184C474.863 323.773 474.607 323.407 474.093 323.084C473.595 322.761 472.693 322.439 471.387 322.116C470.83 321.984 470.302 321.823 469.803 321.632C469.319 321.441 468.894 321.221 468.527 320.972C468.161 320.708 467.867 320.422 467.647 320.114C467.427 319.806 467.317 319.461 467.317 319.08C467.317 318.655 467.413 318.259 467.603 317.892C467.794 317.511 468.073 317.188 468.439 316.924C468.821 316.645 469.29 316.433 469.847 316.286C470.419 316.125 471.072 316.044 471.805 316.044C472.612 316.044 473.397 316.183 474.159 316.462C474.922 316.726 475.567 317.041 476.095 317.408L475.215 318.574C474.746 318.237 474.225 317.965 473.653 317.76C473.081 317.555 472.465 317.452 471.805 317.452C471.307 317.452 470.889 317.496 470.551 317.584C470.214 317.657 469.943 317.767 469.737 317.914C469.532 318.046 469.385 318.207 469.297 318.398C469.209 318.589 469.165 318.787 469.165 318.992C469.165 319.432 469.466 319.799 470.067 320.092C470.669 320.371 471.453 320.635 472.421 320.884C473.873 321.251 474.944 321.669 475.633 322.138C476.337 322.607 476.689 323.253 476.689 324.074C476.689 324.514 476.587 324.925 476.381 325.306C476.176 325.687 475.868 326.025 475.457 326.318C475.061 326.611 474.563 326.839 473.961 327C473.375 327.176 472.7 327.264 471.937 327.264C470.881 327.264 469.906 327.103 469.011 326.78C468.131 326.443 467.361 326.047 466.701 325.592L467.581 324.404ZM480.773 324.404C481.374 324.844 482.019 325.196 482.709 325.46C483.398 325.724 484.227 325.856 485.195 325.856C486.163 325.856 486.881 325.695 487.351 325.372C487.82 325.049 488.055 324.653 488.055 324.184C488.055 323.773 487.798 323.407 487.285 323.084C486.786 322.761 485.884 322.439 484.579 322.116C484.021 321.984 483.493 321.823 482.995 321.632C482.511 321.441 482.085 321.221 481.719 320.972C481.352 320.708 481.059 320.422 480.839 320.114C480.619 319.806 480.509 319.461 480.509 319.08C480.509 318.655 480.604 318.259 480.795 317.892C480.985 317.511 481.264 317.188 481.631 316.924C482.012 316.645 482.481 316.433 483.039 316.286C483.611 316.125 484.263 316.044 484.997 316.044C485.803 316.044 486.588 316.183 487.351 316.462C488.113 316.726 488.759 317.041 489.287 317.408L488.407 318.574C487.937 318.237 487.417 317.965 486.845 317.76C486.273 317.555 485.657 317.452 484.997 317.452C484.498 317.452 484.08 317.496 483.743 317.584C483.405 317.657 483.134 317.767 482.929 317.914C482.723 318.046 482.577 318.207 482.489 318.398C482.401 318.589 482.357 318.787 482.357 318.992C482.357 319.432 482.657 319.799 483.259 320.092C483.86 320.371 484.645 320.635 485.613 320.884C487.065 321.251 488.135 321.669 488.825 322.138C489.529 322.607 489.881 323.253 489.881 324.074C489.881 324.514 489.778 324.925 489.573 325.306C489.367 325.687 489.059 326.025 488.649 326.318C488.253 326.611 487.754 326.839 487.153 327C486.566 327.176 485.891 327.264 485.129 327.264C484.073 327.264 483.097 327.103 482.203 326.78C481.323 326.443 480.553 326.047 479.893 325.592L480.773 324.404ZM502.61 327H501.136L500.982 325.13H500.894C500.351 325.761 499.757 326.274 499.112 326.67C498.481 327.066 497.748 327.264 496.912 327.264C495.621 327.264 494.675 326.905 494.074 326.186C493.487 325.453 493.194 324.375 493.194 322.952V316.308H495.02V322.71C495.02 323.722 495.203 324.477 495.57 324.976C495.951 325.46 496.589 325.702 497.484 325.702C498.1 325.702 498.657 325.548 499.156 325.24C499.655 324.917 500.205 324.411 500.806 323.722V316.308H502.61V327ZM506.209 321.676C506.209 320.796 506.363 320.011 506.671 319.322C506.979 318.618 507.383 318.024 507.881 317.54C508.395 317.056 508.974 316.689 509.619 316.44C510.279 316.176 510.954 316.044 511.643 316.044C512.406 316.044 513.088 316.169 513.689 316.418C514.291 316.653 514.797 316.99 515.207 317.43C515.633 317.87 515.955 318.398 516.175 319.014C516.395 319.63 516.505 320.312 516.505 321.06C516.505 321.251 516.498 321.441 516.483 321.632C516.483 321.808 516.469 321.962 516.439 322.094H508.079C508.094 322.666 508.204 323.179 508.409 323.634C508.629 324.089 508.915 324.477 509.267 324.8C509.634 325.123 510.059 325.372 510.543 325.548C511.042 325.724 511.585 325.812 512.171 325.812C512.802 325.812 513.374 325.724 513.887 325.548C514.415 325.372 514.929 325.13 515.427 324.822L516.065 326.01C515.537 326.347 514.936 326.641 514.261 326.89C513.587 327.139 512.817 327.264 511.951 327.264C511.159 327.264 510.411 327.139 509.707 326.89C509.018 326.626 508.409 326.259 507.881 325.79C507.368 325.306 506.957 324.719 506.649 324.03C506.356 323.341 506.209 322.556 506.209 321.676ZM514.833 320.796C514.833 319.725 514.555 318.904 513.997 318.332C513.44 317.76 512.663 317.474 511.665 317.474C511.225 317.474 510.8 317.547 510.389 317.694C509.993 317.841 509.634 318.061 509.311 318.354C508.989 318.633 508.717 318.977 508.497 319.388C508.277 319.799 508.131 320.268 508.057 320.796H514.833ZM520.347 324.404C520.948 324.844 521.593 325.196 522.283 325.46C522.972 325.724 523.801 325.856 524.769 325.856C525.737 325.856 526.455 325.695 526.925 325.372C527.394 325.049 527.629 324.653 527.629 324.184C527.629 323.773 527.372 323.407 526.859 323.084C526.36 322.761 525.458 322.439 524.153 322.116C523.595 321.984 523.067 321.823 522.569 321.632C522.085 321.441 521.659 321.221 521.293 320.972C520.926 320.708 520.633 320.422 520.413 320.114C520.193 319.806 520.083 319.461 520.083 319.08C520.083 318.655 520.178 318.259 520.369 317.892C520.559 317.511 520.838 317.188 521.205 316.924C521.586 316.645 522.055 316.433 522.613 316.286C523.185 316.125 523.837 316.044 524.571 316.044C525.377 316.044 526.162 316.183 526.925 316.462C527.687 316.726 528.333 317.041 528.861 317.408L527.981 318.574C527.511 318.237 526.991 317.965 526.419 317.76C525.847 317.555 525.231 317.452 524.571 317.452C524.072 317.452 523.654 317.496 523.317 317.584C522.979 317.657 522.708 317.767 522.503 317.914C522.297 318.046 522.151 318.207 522.063 318.398C521.975 318.589 521.931 318.787 521.931 318.992C521.931 319.432 522.231 319.799 522.833 320.092C523.434 320.371 524.219 320.635 525.187 320.884C526.639 321.251 527.709 321.669 528.399 322.138C529.103 322.607 529.455 323.253 529.455 324.074C529.455 324.514 529.352 324.925 529.147 325.306C528.941 325.687 528.633 326.025 528.223 326.318C527.827 326.611 527.328 326.839 526.727 327C526.14 327.176 525.465 327.264 524.703 327.264C523.647 327.264 522.671 327.103 521.777 326.78C520.897 326.443 520.127 326.047 519.467 325.592L520.347 324.404Z" fill="#FF55FF"/>
<path d="M681.18 327.902V331.51H679.376V316.308H680.872L681.026 317.672H681.092C681.591 317.203 682.163 316.814 682.808 316.506C683.468 316.198 684.128 316.044 684.788 316.044C685.507 316.044 686.137 316.176 686.68 316.44C687.237 316.689 687.699 317.056 688.066 317.54C688.447 318.009 688.733 318.581 688.924 319.256C689.115 319.916 689.21 320.664 689.21 321.5C689.21 322.409 689.078 323.223 688.814 323.942C688.55 324.646 688.191 325.247 687.736 325.746C687.296 326.245 686.783 326.626 686.196 326.89C685.609 327.139 684.993 327.264 684.348 327.264C683.849 327.264 683.307 327.147 682.72 326.912C682.148 326.663 681.62 326.318 681.136 325.878L681.18 327.902ZM681.18 324.492C681.693 324.947 682.207 325.269 682.72 325.46C683.233 325.651 683.673 325.746 684.04 325.746C685.008 325.746 685.8 325.372 686.416 324.624C687.032 323.876 687.34 322.835 687.34 321.5C687.34 320.913 687.281 320.378 687.164 319.894C687.047 319.41 686.863 318.999 686.614 318.662C686.379 318.31 686.071 318.039 685.69 317.848C685.309 317.657 684.854 317.562 684.326 317.562C683.857 317.562 683.351 317.694 682.808 317.958C682.28 318.207 681.737 318.611 681.18 319.168V324.492ZM692.303 324.228C692.303 323.627 692.443 323.106 692.721 322.666C693.015 322.211 693.469 321.823 694.085 321.5C694.716 321.177 695.523 320.913 696.505 320.708C697.488 320.503 698.669 320.341 700.047 320.224C700.033 319.857 699.974 319.513 699.871 319.19C699.769 318.867 699.607 318.589 699.387 318.354C699.167 318.105 698.874 317.907 698.507 317.76C698.155 317.613 697.723 317.54 697.209 317.54C696.505 317.54 695.831 317.679 695.185 317.958C694.54 318.222 693.968 318.508 693.469 318.816L692.765 317.584C693.029 317.408 693.337 317.232 693.689 317.056C694.056 316.865 694.437 316.697 694.833 316.55C695.244 316.403 695.677 316.286 696.131 316.198C696.586 316.095 697.048 316.044 697.517 316.044C698.984 316.044 700.069 316.447 700.773 317.254C701.492 318.046 701.851 319.109 701.851 320.444V327H700.377L700.223 325.548H700.157C699.556 326.017 698.889 326.421 698.155 326.758C697.437 327.095 696.696 327.264 695.933 327.264C695.435 327.264 694.965 327.191 694.525 327.044C694.085 326.912 693.697 326.721 693.359 326.472C693.037 326.208 692.78 325.893 692.589 325.526C692.399 325.145 692.303 324.712 692.303 324.228ZM694.063 324.096C694.063 324.404 694.129 324.668 694.261 324.888C694.393 325.093 694.562 325.269 694.767 325.416C694.987 325.548 695.237 325.651 695.515 325.724C695.809 325.783 696.109 325.812 696.417 325.812C697.033 325.812 697.635 325.68 698.221 325.416C698.823 325.137 699.431 324.741 700.047 324.228V321.412C698.903 321.5 697.943 321.625 697.165 321.786C696.403 321.947 695.787 322.145 695.317 322.38C694.863 322.6 694.54 322.857 694.349 323.15C694.159 323.429 694.063 323.744 694.063 324.096ZM708.245 317.782H705.231V316.418L708.311 316.308L708.553 313.316H710.049V316.308H715.307V317.782H710.049V322.864C710.049 323.348 710.093 323.773 710.181 324.14C710.269 324.492 710.416 324.793 710.621 325.042C710.826 325.291 711.105 325.482 711.457 325.614C711.809 325.731 712.242 325.79 712.755 325.79C713.268 325.79 713.73 325.746 714.141 325.658C714.552 325.57 714.948 325.453 715.329 325.306L715.725 326.626C715.241 326.802 714.706 326.949 714.119 327.066C713.532 327.198 712.946 327.264 712.359 327.264C711.582 327.264 710.929 327.161 710.401 326.956C709.873 326.736 709.448 326.435 709.125 326.054C708.817 325.658 708.59 325.189 708.443 324.646C708.311 324.103 708.245 323.502 708.245 322.842V317.782ZM718.664 321.676C718.664 320.781 718.818 319.989 719.126 319.3C719.449 318.596 719.882 318.002 720.424 317.518C720.967 317.034 721.598 316.667 722.316 316.418C723.05 316.169 723.82 316.044 724.626 316.044C725.506 316.044 726.262 316.198 726.892 316.506C727.538 316.814 728.08 317.181 728.52 317.606L727.618 318.772C727.178 318.391 726.716 318.09 726.232 317.87C725.763 317.65 725.25 317.54 724.692 317.54C724.076 317.54 723.512 317.643 722.998 317.848C722.485 318.039 722.045 318.317 721.678 318.684C721.326 319.051 721.048 319.491 720.842 320.004C720.637 320.503 720.534 321.06 720.534 321.676C720.534 322.292 720.63 322.849 720.82 323.348C721.026 323.847 721.304 324.279 721.656 324.646C722.023 324.998 722.456 325.277 722.954 325.482C723.468 325.673 724.032 325.768 724.648 325.768C725.308 325.768 725.91 325.643 726.452 325.394C727.01 325.13 727.516 324.807 727.97 324.426L728.762 325.592C728.176 326.12 727.516 326.531 726.782 326.824C726.064 327.117 725.308 327.264 724.516 327.264C723.68 327.264 722.903 327.139 722.184 326.89C721.48 326.641 720.864 326.281 720.336 325.812C719.808 325.328 719.398 324.741 719.104 324.052C718.811 323.348 718.664 322.556 718.664 321.676ZM732.142 311.336H733.946V315.604L733.858 318.134C734.43 317.533 735.038 317.034 735.684 316.638C736.329 316.242 737.07 316.044 737.906 316.044C739.182 316.044 740.113 316.411 740.7 317.144C741.301 317.863 741.602 318.933 741.602 320.356V327H739.798V320.598C739.798 319.586 739.607 318.838 739.226 318.354C738.844 317.855 738.214 317.606 737.334 317.606C737.011 317.606 736.71 317.65 736.432 317.738C736.168 317.811 735.904 317.929 735.64 318.09C735.376 318.251 735.104 318.457 734.826 318.706C734.547 318.941 734.254 319.219 733.946 319.542V327H732.142V311.336ZM744.805 321.676C744.805 320.796 744.959 320.011 745.267 319.322C745.575 318.618 745.978 318.024 746.477 317.54C746.99 317.056 747.57 316.689 748.215 316.44C748.875 316.176 749.55 316.044 750.239 316.044C751.002 316.044 751.684 316.169 752.285 316.418C752.886 316.653 753.392 316.99 753.803 317.43C754.228 317.87 754.551 318.398 754.771 319.014C754.991 319.63 755.101 320.312 755.101 321.06C755.101 321.251 755.094 321.441 755.079 321.632C755.079 321.808 755.064 321.962 755.035 322.094H746.675C746.69 322.666 746.8 323.179 747.005 323.634C747.225 324.089 747.511 324.477 747.863 324.8C748.23 325.123 748.655 325.372 749.139 325.548C749.638 325.724 750.18 325.812 750.767 325.812C751.398 325.812 751.97 325.724 752.483 325.548C753.011 325.372 753.524 325.13 754.023 324.822L754.661 326.01C754.133 326.347 753.532 326.641 752.857 326.89C752.182 327.139 751.412 327.264 750.547 327.264C749.755 327.264 749.007 327.139 748.303 326.89C747.614 326.626 747.005 326.259 746.477 325.79C745.964 325.306 745.553 324.719 745.245 324.03C744.952 323.341 744.805 322.556 744.805 321.676ZM753.429 320.796C753.429 319.725 753.15 318.904 752.593 318.332C752.036 317.76 751.258 317.474 750.261 317.474C749.821 317.474 749.396 317.547 748.985 317.694C748.589 317.841 748.23 318.061 747.907 318.354C747.584 318.633 747.313 318.977 747.093 319.388C746.873 319.799 746.726 320.268 746.653 320.796H753.429ZM758.943 324.404C759.544 324.844 760.189 325.196 760.879 325.46C761.568 325.724 762.397 325.856 763.365 325.856C764.333 325.856 765.051 325.695 765.521 325.372C765.99 325.049 766.225 324.653 766.225 324.184C766.225 323.773 765.968 323.407 765.455 323.084C764.956 322.761 764.054 322.439 762.749 322.116C762.191 321.984 761.663 321.823 761.165 321.632C760.681 321.441 760.255 321.221 759.889 320.972C759.522 320.708 759.229 320.422 759.009 320.114C758.789 319.806 758.679 319.461 758.679 319.08C758.679 318.655 758.774 318.259 758.965 317.892C759.155 317.511 759.434 317.188 759.801 316.924C760.182 316.645 760.651 316.433 761.209 316.286C761.781 316.125 762.433 316.044 763.167 316.044C763.973 316.044 764.758 316.183 765.521 316.462C766.283 316.726 766.929 317.041 767.457 317.408L766.577 318.574C766.107 318.237 765.587 317.965 765.015 317.76C764.443 317.555 763.827 317.452 763.167 317.452C762.668 317.452 762.25 317.496 761.913 317.584C761.575 317.657 761.304 317.767 761.099 317.914C760.893 318.046 760.747 318.207 760.659 318.398C760.571 318.589 760.527 318.787 760.527 318.992C760.527 319.432 760.827 319.799 761.429 320.092C762.03 320.371 762.815 320.635 763.783 320.884C765.235 321.251 766.305 321.669 766.995 322.138C767.699 322.607 768.051 323.253 768.051 324.074C768.051 324.514 767.948 324.925 767.743 325.306C767.537 325.687 767.229 326.025 766.819 326.318C766.423 326.611 765.924 326.839 765.323 327C764.736 327.176 764.061 327.264 763.299 327.264C762.243 327.264 761.267 327.103 760.373 326.78C759.493 326.443 758.723 326.047 758.063 325.592L758.943 324.404Z" fill="#FF55FF"/>
<rect x="159.5" y="282.5" width="203" height="74" rx="3.5" stroke="#FF55FF"/>
<rect x="391.5" y="282.5" width="202" height="74" rx="3.5" stroke="#FF55FF"/>
<rect x="621.5" y="282.5" width="203" height="74" rx="3.5" stroke="#FF55FF"/>
<path d="M413.564 143.308H415.06L415.214 145.838H415.28C415.837 144.973 416.519 144.291 417.326 143.792C418.147 143.293 419.056 143.044 420.054 143.044C420.45 143.044 420.816 143.081 421.154 143.154C421.491 143.213 421.828 143.323 422.166 143.484L421.748 145.046C421.366 144.914 421.044 144.819 420.78 144.76C420.53 144.701 420.193 144.672 419.768 144.672C418.961 144.672 418.184 144.907 417.436 145.376C416.702 145.831 416.013 146.615 415.368 147.73V154H413.564V143.308ZM425.325 151.228C425.325 150.627 425.464 150.106 425.743 149.666C426.036 149.211 426.491 148.823 427.107 148.5C427.738 148.177 428.544 147.913 429.527 147.708C430.51 147.503 431.69 147.341 433.069 147.224C433.054 146.857 432.996 146.513 432.893 146.19C432.79 145.867 432.629 145.589 432.409 145.354C432.189 145.105 431.896 144.907 431.529 144.76C431.177 144.613 430.744 144.54 430.231 144.54C429.527 144.54 428.852 144.679 428.207 144.958C427.562 145.222 426.99 145.508 426.491 145.816L425.787 144.584C426.051 144.408 426.359 144.232 426.711 144.056C427.078 143.865 427.459 143.697 427.855 143.55C428.266 143.403 428.698 143.286 429.153 143.198C429.608 143.095 430.07 143.044 430.539 143.044C432.006 143.044 433.091 143.447 433.795 144.254C434.514 145.046 434.873 146.109 434.873 147.444V154H433.399L433.245 152.548H433.179C432.578 153.017 431.91 153.421 431.177 153.758C430.458 154.095 429.718 154.264 428.955 154.264C428.456 154.264 427.987 154.191 427.547 154.044C427.107 153.912 426.718 153.721 426.381 153.472C426.058 153.208 425.802 152.893 425.611 152.526C425.42 152.145 425.325 151.712 425.325 151.228ZM427.085 151.096C427.085 151.404 427.151 151.668 427.283 151.888C427.415 152.093 427.584 152.269 427.789 152.416C428.009 152.548 428.258 152.651 428.537 152.724C428.83 152.783 429.131 152.812 429.439 152.812C430.055 152.812 430.656 152.68 431.243 152.416C431.844 152.137 432.453 151.741 433.069 151.228V148.412C431.925 148.5 430.964 148.625 430.187 148.786C429.424 148.947 428.808 149.145 428.339 149.38C427.884 149.6 427.562 149.857 427.371 150.15C427.18 150.429 427.085 150.744 427.085 151.096ZM438.054 148.676C438.054 147.811 438.186 147.033 438.45 146.344C438.729 145.64 439.088 145.046 439.528 144.562C439.983 144.078 440.504 143.704 441.09 143.44C441.677 143.176 442.286 143.044 442.916 143.044C443.576 143.044 444.156 143.169 444.654 143.418C445.153 143.667 445.652 144.005 446.15 144.43L446.084 142.45V138.336H447.888V154H446.392L446.238 152.592H446.172C445.732 153.047 445.204 153.443 444.588 153.78C443.987 154.103 443.356 154.264 442.696 154.264C441.992 154.264 441.354 154.139 440.782 153.89C440.225 153.641 439.741 153.281 439.33 152.812C438.92 152.328 438.604 151.741 438.384 151.052C438.164 150.363 438.054 149.571 438.054 148.676ZM439.924 148.654C439.924 149.945 440.196 150.949 440.738 151.668C441.296 152.387 442.073 152.746 443.07 152.746C444.126 152.746 445.131 152.211 446.084 151.14V145.816C445.6 145.361 445.124 145.039 444.654 144.848C444.2 144.657 443.738 144.562 443.268 144.562C442.799 144.562 442.359 144.665 441.948 144.87C441.552 145.061 441.2 145.339 440.892 145.706C440.599 146.058 440.364 146.483 440.188 146.982C440.012 147.481 439.924 148.038 439.924 148.654ZM451.906 143.308H458.682V154H456.878V144.782H451.906V143.308ZM457.582 141.108C457.156 141.108 456.804 140.983 456.526 140.734C456.262 140.485 456.13 140.147 456.13 139.722C456.13 139.297 456.262 138.959 456.526 138.71C456.804 138.446 457.156 138.314 457.582 138.314C457.992 138.314 458.337 138.446 458.616 138.71C458.894 138.959 459.034 139.297 459.034 139.722C459.034 140.147 458.894 140.485 458.616 140.734C458.337 140.983 457.992 141.108 457.582 141.108ZM464.877 148.676C464.877 147.781 465.031 146.989 465.339 146.3C465.662 145.596 466.095 145.002 466.637 144.518C467.18 144.034 467.811 143.667 468.529 143.418C469.263 143.169 470.033 143.044 470.839 143.044C471.719 143.044 472.475 143.198 473.105 143.506C473.751 143.814 474.293 144.181 474.733 144.606L473.831 145.772C473.391 145.391 472.929 145.09 472.445 144.87C471.976 144.65 471.463 144.54 470.905 144.54C470.289 144.54 469.725 144.643 469.211 144.848C468.698 145.039 468.258 145.317 467.891 145.684C467.539 146.051 467.261 146.491 467.055 147.004C466.85 147.503 466.747 148.06 466.747 148.676C466.747 149.292 466.843 149.849 467.033 150.348C467.239 150.847 467.517 151.279 467.869 151.646C468.236 151.998 468.669 152.277 469.167 152.482C469.681 152.673 470.245 152.768 470.861 152.768C471.521 152.768 472.123 152.643 472.665 152.394C473.223 152.13 473.729 151.807 474.183 151.426L474.975 152.592C474.389 153.12 473.729 153.531 472.995 153.824C472.277 154.117 471.521 154.264 470.729 154.264C469.893 154.264 469.116 154.139 468.397 153.89C467.693 153.641 467.077 153.281 466.549 152.812C466.021 152.328 465.611 151.741 465.317 151.052C465.024 150.348 464.877 149.556 464.877 148.676ZM478.091 138.336H483.547V150.546C483.547 151.338 483.73 151.91 484.097 152.262C484.478 152.599 484.991 152.768 485.637 152.768C486.223 152.768 486.898 152.599 487.661 152.262L488.123 153.626C487.639 153.802 487.184 153.949 486.759 154.066C486.333 154.198 485.827 154.264 485.241 154.264C484.097 154.264 483.224 153.941 482.623 153.296C482.036 152.651 481.743 151.69 481.743 150.414V139.81H478.091V138.336ZM491.018 148.676C491.018 147.796 491.172 147.011 491.48 146.322C491.788 145.618 492.191 145.024 492.69 144.54C493.203 144.056 493.783 143.689 494.428 143.44C495.088 143.176 495.763 143.044 496.452 143.044C497.215 143.044 497.897 143.169 498.498 143.418C499.099 143.653 499.605 143.99 500.016 144.43C500.441 144.87 500.764 145.398 500.984 146.014C501.204 146.63 501.314 147.312 501.314 148.06C501.314 148.251 501.307 148.441 501.292 148.632C501.292 148.808 501.277 148.962 501.248 149.094H492.888C492.903 149.666 493.013 150.179 493.218 150.634C493.438 151.089 493.724 151.477 494.076 151.8C494.443 152.123 494.868 152.372 495.352 152.548C495.851 152.724 496.393 152.812 496.98 152.812C497.611 152.812 498.183 152.724 498.696 152.548C499.224 152.372 499.737 152.13 500.236 151.822L500.874 153.01C500.346 153.347 499.745 153.641 499.07 153.89C498.395 154.139 497.625 154.264 496.76 154.264C495.968 154.264 495.22 154.139 494.516 153.89C493.827 153.626 493.218 153.259 492.69 152.79C492.177 152.306 491.766 151.719 491.458 151.03C491.165 150.341 491.018 149.556 491.018 148.676ZM499.642 147.796C499.642 146.725 499.363 145.904 498.806 145.332C498.249 144.76 497.471 144.474 496.474 144.474C496.034 144.474 495.609 144.547 495.198 144.694C494.802 144.841 494.443 145.061 494.12 145.354C493.797 145.633 493.526 145.977 493.306 146.388C493.086 146.799 492.939 147.268 492.866 147.796H499.642ZM504.561 146.058H514.021V147.422H504.561V146.058ZM517.665 138.336H523.121V150.546C523.121 151.338 523.304 151.91 523.671 152.262C524.052 152.599 524.565 152.768 525.211 152.768C525.797 152.768 526.472 152.599 527.235 152.262L527.697 153.626C527.213 153.802 526.758 153.949 526.333 154.066C525.907 154.198 525.401 154.264 524.815 154.264C523.671 154.264 522.798 153.941 522.197 153.296C521.61 152.651 521.317 151.69 521.317 150.414V139.81H517.665V138.336ZM531.054 143.308H537.83V154H536.026V144.782H531.054V143.308ZM536.73 141.108C536.305 141.108 535.953 140.983 535.674 140.734C535.41 140.485 535.278 140.147 535.278 139.722C535.278 139.297 535.41 138.959 535.674 138.71C535.953 138.446 536.305 138.314 536.73 138.314C537.141 138.314 537.486 138.446 537.764 138.71C538.043 138.959 538.182 139.297 538.182 139.722C538.182 140.147 538.043 140.485 537.764 140.734C537.486 140.983 537.141 141.108 536.73 141.108ZM544.312 143.308H545.808L545.962 145.134H546.05C546.607 144.533 547.208 144.034 547.854 143.638C548.499 143.242 549.24 143.044 550.076 143.044C551.352 143.044 552.283 143.411 552.87 144.144C553.471 144.863 553.772 145.933 553.772 147.356V154H551.968V147.598C551.968 146.586 551.777 145.838 551.396 145.354C551.014 144.855 550.384 144.606 549.504 144.606C549.181 144.606 548.88 144.65 548.602 144.738C548.338 144.811 548.074 144.929 547.81 145.09C547.546 145.251 547.274 145.457 546.996 145.706C546.717 145.941 546.424 146.219 546.116 146.542V154H544.312V143.308ZM557.789 138.336H559.593V148.94H559.681L565.445 143.308H567.513L563.245 147.554L568.085 154H566.061L562.123 148.654L559.593 151.096V154H557.789V138.336Z" fill="#55FFFF"/>
</svg>
