<svg width="235" height="64" viewBox="0 0 235 64" fill="none" xmlns="http://www.w3.org/2000/svg">
<g clip-path="url(#clip0_2388_86511)">
<path d="M90.7444 28.7706V7.33788H99.7171V56.3431H90.7444V53.5753C90.4928 53.7003 90.3908 53.7236 90.3242 53.7872C86.959 56.9767 82.949 57.7779 78.629 56.7077C72.9321 55.2983 69.5044 51.3605 68.0964 45.704C66.6674 39.9649 67.6284 34.6158 71.4824 30.0062C75.5361 25.1572 82.6868 23.7838 88.0302 26.8251C88.9224 27.3316 89.717 28.0246 90.7444 28.7706ZM91.0419 41.5904C91.0481 40.0243 90.8567 38.8353 90.3908 37.7248C89.2968 35.1159 87.3749 33.5222 84.5837 33.2149C81.9506 32.9246 79.7085 33.8167 78.1194 36.0187C76.2475 38.6128 76.0291 41.4929 77.0961 44.4621C78.5686 48.5588 83.2255 50.3963 87.0297 48.3892C89.8584 46.8994 90.8984 44.318 91.0419 41.5904Z" fill="#28333D"/>
<path d="M52.44 28.737V26.0115H61.344L61.45 56.3625L52.4878 56.4197C52.4878 56.4197 52.4878 54.578 52.4878 53.5014C50.0964 55.4038 47.7681 56.8364 44.6403 57.0725C37.3524 57.6171 32.0278 52.7745 30.2266 47.0755C28.2673 40.8723 29.0348 35.0569 33.257 29.9747C37.2712 25.1469 44.4011 23.7969 49.7153 26.7957C50.6387 27.3149 51.4541 28.0271 52.44 28.737ZM38.8561 44.4773C39.8918 47.2091 41.8865 48.8368 44.7651 49.1292C47.575 49.4153 49.8546 48.3535 51.452 45.9332C53.4112 42.9641 53.1825 38.4901 50.9528 35.7244C48.2323 32.3462 42.9534 32.2933 40.1601 35.6121C37.9675 38.2188 37.687 41.3787 38.8561 44.4773Z" fill="#28333D"/>
<path d="M191.668 49.0188H202.303V56.3368H171.98V49.0188H182.535V14.7175H171.98V7.44501H191.668V49.0188Z" fill="#28333D"/>
<path d="M211.988 43.5091C212.313 47.2934 215.533 49.9426 219.184 49.9734C221.677 49.9945 224.225 49.096 225.377 46.7189H233.451C233.143 47.611 232.946 48.4354 232.587 49.1794C230.024 54.5425 224.373 57.337 218.662 57.1776C210.164 56.9404 203.536 49.984 203.542 41.2315C203.548 32.7783 210.196 25.3991 218.662 25.2352C222.813 25.1545 226.445 26.6469 229.126 29.2505C232.872 32.8869 234.35 38.3554 233.915 43.5091H211.988ZM225.196 37.7647C224.966 34.8808 221.784 32.7662 219.184 32.7054C216.061 32.6324 213.251 34.7503 212.327 37.7647H225.196Z" fill="#28333D"/>
<path d="M170.047 37.4349H161.035C161.035 37.4349 159.673 33.227 155.015 33.227C150.695 33.33 148.065 37.2804 148.057 41.3649C148.051 45.2845 150.876 48.9964 154.879 49.1146C157.997 49.2068 160.104 47.3152 161.102 44.9245H170.106C169.257 52.3107 161.94 57.2238 155.015 57.1421C146.445 57.0409 139.094 49.9631 139.132 41.1271C139.169 32.2946 146.502 25.2793 155.015 25.2071C162.049 25.2071 169.421 30.1784 170.047 37.4349Z" fill="#28333D"/>
<path d="M117.525 33.3144H107.07V26.0091H126.749V49.0102H137.251V56.343H107.07V49.0102H117.525V33.3144Z" fill="#28333D"/>
<path d="M24.6914 26.0053V33.3381H9.53926V56.2905H0.5V26.0053H24.6914Z" fill="#28333D"/>
<path d="M121.353 18.7844C118.002 18.7909 115.388 16.1586 115.394 12.7889C115.4 9.48062 117.998 6.84417 121.28 6.81662C124.627 6.78907 127.268 9.40856 127.282 12.7677C127.299 16.1544 124.712 18.7781 121.353 18.7844Z" fill="#28333D"/>
</g>
<defs>
<clipPath id="clip0_2388_86511">
<rect width="234" height="63" fill="white" transform="translate(0.5 0.5)"/>
</clipPath>
</defs>
</svg>
