<svg width="280" height="112" viewBox="0 0 280 112" fill="none" xmlns="http://www.w3.org/2000/svg">
<path d="M151.235 50.9046V37.3305H157.025V68.3672H151.235V66.6142C151.072 66.6934 151.006 66.7081 150.964 66.7484C148.792 68.7685 146.204 69.2758 143.417 68.598C139.74 67.7054 137.529 65.2115 136.62 61.6291C135.698 57.9943 136.318 54.6065 138.805 51.6871C141.421 48.6161 146.035 47.7463 149.483 49.6724C150.059 49.9932 150.572 50.4321 151.235 50.9046ZM151.427 59.0238C151.431 58.0319 151.307 57.2789 151.006 56.5756C150.3 54.9233 149.06 53.9139 147.259 53.7193C145.56 53.5354 144.113 54.1005 143.088 55.4951C141.88 57.1379 141.739 58.962 142.427 60.8425C143.378 63.4371 146.383 64.6008 148.838 63.3297C150.663 62.3861 151.334 60.7513 151.427 59.0238Z" fill="#28333D"/>
<path d="M126.517 50.8833V49.1572H132.263L132.331 68.3794L126.548 68.4156C126.548 68.4156 126.548 67.2493 126.548 66.5674C125.004 67.7722 123.502 68.6796 121.484 68.8291C116.781 69.174 113.345 66.107 112.183 62.4977C110.918 58.569 111.414 54.8859 114.138 51.6672C116.728 48.6096 121.329 47.7546 124.759 49.6538C125.354 49.9826 125.881 50.4337 126.517 50.8833ZM117.751 60.8521C118.42 62.5823 119.707 63.6131 121.564 63.7983C123.377 63.9796 124.849 63.3071 125.879 61.7742C127.144 59.8938 126.996 57.0603 125.557 55.3086C123.802 53.1691 120.395 53.1356 118.593 55.2375C117.178 56.8884 116.997 58.8897 117.751 60.8521Z" fill="#28333D"/>
<path d="M216.361 63.7284H223.223V68.3632H203.656V63.7284H210.467V42.0043H203.656V37.3984H216.361V63.7284Z" fill="#28333D"/>
<path d="M229.473 60.239C229.683 62.6357 231.761 64.3135 234.117 64.333C235.725 64.3464 237.369 63.7773 238.113 62.2718H243.323C243.124 62.8369 242.997 63.359 242.766 63.8301C241.111 67.2268 237.465 68.9966 233.78 68.8957C228.296 68.7455 224.019 64.3397 224.023 58.7964C224.027 53.4428 228.317 48.7693 233.78 48.6655C236.458 48.6144 238.802 49.5596 240.532 51.2085C242.95 53.5116 243.903 56.9749 243.622 60.239H229.473ZM237.996 56.6008C237.847 54.7744 235.794 53.4351 234.117 53.3966C232.101 53.3504 230.288 54.6917 229.692 56.6008H237.996Z" fill="#28333D"/>
<path d="M202.409 56.392H196.593C196.593 56.392 195.714 53.727 192.708 53.727C189.92 53.7922 188.223 56.2941 188.219 58.881C188.214 61.3634 190.038 63.7142 192.62 63.7891C194.632 63.8475 195.992 62.6495 196.637 61.1354H202.447C201.898 65.8133 197.177 68.9249 192.708 68.8732C187.178 68.8091 182.434 64.3265 182.459 58.7304C182.483 53.1365 187.215 48.6934 192.708 48.6477C197.247 48.6477 202.004 51.7962 202.409 56.392Z" fill="#28333D"/>
<path d="M168.516 53.7823H161.77V49.1556H174.468V63.7229H181.245V68.3671H161.77V63.7229H168.516V53.7823Z" fill="#28333D"/>
<path d="M108.611 49.1532V53.7973H98.833V68.3339H93V49.1532H108.611Z" fill="#28333D"/>
<path d="M170.986 44.58C168.824 44.5841 167.137 42.917 167.141 40.7828C167.145 38.6876 168.822 37.0178 170.939 37.0004C173.099 36.9829 174.803 38.6419 174.812 40.7694C174.823 42.9143 173.154 44.576 170.986 44.58Z" fill="#28333D"/>
<path d="M36 57C36 44.8497 45.8497 35 58 35C70.1503 35 80 44.8497 80 57C80 69.1503 70.1503 79 58 79C45.8497 79 36 69.1503 36 57Z" fill="#5555FF"/>
<path d="M58.54 66.1009C58.2077 62.4852 58.7346 57.6123 60.8659 55.2514C63.1106 55.749 67.5998 54.2131 69.2322 51.0982C70.7125 48.2737 70.4442 44.1286 71.2728 43C61.512 42.9999 59.8926 53.0894 57.0975 60.6453C55.0308 55.0585 48.545 51.2939 42.9091 53.5902C45.2004 55.1741 46.6291 59.0797 49.7337 59.4292C50.7104 59.5392 52.4843 59.4292 53.6526 57.2212C56.4173 59.4669 56.0143 62.1903 55.6549 66.1009C55.5099 67.6792 54.9638 69.1803 55.0441 70.4324C55.1592 72.6437 59.0358 72.6437 59.1509 70.4324C59.2311 69.1803 58.6851 67.6792 58.54 66.1009Z" fill="url(#paint0_linear_35_10)"/>
<defs>
<linearGradient id="paint0_linear_35_10" x1="57.0909" y1="43" x2="57.0909" y2="72.0909" gradientUnits="userSpaceOnUse">
<stop stop-color="#00FF19"/>
<stop offset="1" stop-color="#00B81E"/>
</linearGradient>
</defs>
</svg>
