<svg width="129" height="128" viewBox="0 0 129 128" fill="none" xmlns="http://www.w3.org/2000/svg">
<path d="M0.710785 64C0.710785 28.6538 29.3646 0 64.7108 0C100.057 0 128.711 28.6538 128.711 64C128.711 99.3462 100.057 128 64.7108 128C29.3646 128 0.710785 99.3462 0.710785 64Z" fill="#5555FF"/>
<path d="M66.2818 90.4753C65.3151 79.9569 66.8478 65.7811 73.0481 58.9131C79.5778 60.3608 92.6374 55.8927 97.3863 46.8312C101.693 38.6144 100.912 26.5559 103.322 23.2726C74.9274 23.2724 70.2164 52.6237 62.0853 74.6045C56.0732 58.3521 37.2054 47.4005 20.81 54.0806C27.4756 58.6883 31.6318 70.05 40.6632 71.0669C43.5047 71.3868 48.6651 71.0669 52.0639 64.6434C60.1066 71.1765 58.9343 79.099 57.8888 90.4753C57.4668 95.0667 55.8782 99.4335 56.1117 103.076C56.4465 109.509 67.724 109.509 68.0589 103.076C68.2923 99.4335 66.7037 95.0667 66.2818 90.4753Z" fill="url(#paint0_linear_757_0)"/>
<defs>
<linearGradient id="paint0_linear_757_0" x1="62.0662" y1="23.2726" x2="62.0662" y2="107.901" gradientUnits="userSpaceOnUse">
<stop stop-color="#00FF19"/>
<stop offset="1" stop-color="#00B81E"/>
</linearGradient>
</defs>
</svg>
