<svg width="128" height="128" viewBox="0 0 128 128" fill="none" xmlns="http://www.w3.org/2000/svg">
  <path d="M65.5709 90.4753C64.6042 79.957 66.137 65.7812 72.3372 58.9131C78.867 60.3609 91.9265 55.8928 96.6754 46.8313C100.982 38.6145 100.201 26.5559 102.612 23.2727C74.2166 23.2725 69.5056 52.6238 61.3744 74.6045C55.3623 58.3522 36.4945 47.4006 20.0992 54.0807C26.7647 58.6883 30.921 70.0501 39.9524 71.0669C42.7939 71.3869 47.9542 71.0669 51.3531 64.6435C59.3957 71.1765 58.2235 79.0991 57.1779 90.4753C56.7559 95.0667 55.1674 99.4336 55.4008 103.076C55.7357 109.509 67.0132 109.509 67.348 103.076C67.5815 99.4336 65.9929 95.0667 65.5709 90.4753Z" fill="url(#paint0_linear)"/>
  <defs>
    <linearGradient id="paint0_linear" x1="61.3554" y1="23.2727" x2="61.3554" y2="107.901" gradientUnits="userSpaceOnUse">
      <stop stop-color="#00FF19"/>
      <stop offset="1" stop-color="#00B81E"/>
    </linearGradient>
  </defs>
</svg>
